<mxfile host="app.diagrams.net" modified="2020-08-20T02:25:54.474Z" agent="5.0 (X11)" etag="ThCSQsXaNk6jr6cUH-oo" version="13.1.0" type="github" pages="9">
  <diagram id="r4wDJCv4_4U2Mo3Nr3qL" name="信息架构">
    <mxGraphModel dx="1326" dy="808" grid="1" gridSize="10" guides="1" tooltips="1" connect="1" arrows="1" fold="1" page="1" pageScale="1" pageWidth="827" pageHeight="1169" math="0" shadow="0">
      <root>
        <mxCell id="o9OBfB-7zLeJKGPmddPt-0" />
        <mxCell id="o9OBfB-7zLeJKGPmddPt-1" parent="o9OBfB-7zLeJKGPmddPt-0" />
        <mxCell id="GqOYVt8doMp-1XqI6ArN-4" style="edgeStyle=orthogonalEdgeStyle;rounded=0;orthogonalLoop=1;jettySize=auto;html=1;exitX=1;exitY=0.5;exitDx=0;exitDy=0;entryX=0;entryY=0.5;entryDx=0;entryDy=0;" parent="o9OBfB-7zLeJKGPmddPt-1" source="o9OBfB-7zLeJKGPmddPt-3" target="o9OBfB-7zLeJKGPmddPt-4" edge="1">
          <mxGeometry relative="1" as="geometry" />
        </mxCell>
        <mxCell id="GqOYVt8doMp-1XqI6ArN-5" value="提供链接" style="text;html=1;align=center;verticalAlign=middle;resizable=0;points=[];;labelBackgroundColor=#ffffff;" parent="GqOYVt8doMp-1XqI6ArN-4" vertex="1" connectable="0">
          <mxGeometry x="0.1571" y="-3" relative="1" as="geometry">
            <mxPoint x="-11" y="-3" as="offset" />
          </mxGeometry>
        </mxCell>
        <mxCell id="o9OBfB-7zLeJKGPmddPt-3" value="原型" style="rounded=1;whiteSpace=wrap;html=1;" parent="o9OBfB-7zLeJKGPmddPt-1" vertex="1">
          <mxGeometry x="80" y="80" width="120" height="60" as="geometry" />
        </mxCell>
        <mxCell id="GqOYVt8doMp-1XqI6ArN-6" style="edgeStyle=orthogonalEdgeStyle;rounded=0;orthogonalLoop=1;jettySize=auto;html=1;exitX=0.5;exitY=1;exitDx=0;exitDy=0;entryX=0.5;entryY=0;entryDx=0;entryDy=0;" parent="o9OBfB-7zLeJKGPmddPt-1" source="o9OBfB-7zLeJKGPmddPt-4" target="GqOYVt8doMp-1XqI6ArN-0" edge="1">
          <mxGeometry relative="1" as="geometry" />
        </mxCell>
        <mxCell id="o9OBfB-7zLeJKGPmddPt-4" value="任务" style="rounded=1;whiteSpace=wrap;html=1;" parent="o9OBfB-7zLeJKGPmddPt-1" vertex="1">
          <mxGeometry x="295" y="80" width="120" height="60" as="geometry" />
        </mxCell>
        <mxCell id="o9OBfB-7zLeJKGPmddPt-6" value="用户" style="rounded=1;whiteSpace=wrap;html=1;" parent="o9OBfB-7zLeJKGPmddPt-1" vertex="1">
          <mxGeometry x="670" y="80" width="120" height="60" as="geometry" />
        </mxCell>
        <mxCell id="GqOYVt8doMp-1XqI6ArN-0" value="测试" style="rounded=1;whiteSpace=wrap;html=1;" parent="o9OBfB-7zLeJKGPmddPt-1" vertex="1">
          <mxGeometry x="295" y="210" width="120" height="60" as="geometry" />
        </mxCell>
        <mxCell id="GqOYVt8doMp-1XqI6ArN-11" style="edgeStyle=orthogonalEdgeStyle;rounded=0;orthogonalLoop=1;jettySize=auto;html=1;exitX=0.5;exitY=1;exitDx=0;exitDy=0;entryX=1;entryY=0.5;entryDx=0;entryDy=0;startArrow=classic;startFill=1;" parent="o9OBfB-7zLeJKGPmddPt-1" source="GqOYVt8doMp-1XqI6ArN-1" target="GqOYVt8doMp-1XqI6ArN-0" edge="1">
          <mxGeometry relative="1" as="geometry" />
        </mxCell>
        <mxCell id="GqOYVt8doMp-1XqI6ArN-1" value="测试者" style="rounded=1;whiteSpace=wrap;html=1;" parent="o9OBfB-7zLeJKGPmddPt-1" vertex="1">
          <mxGeometry x="480" y="80" width="120" height="60" as="geometry" />
        </mxCell>
      </root>
    </mxGraphModel>
  </diagram>
  <diagram id="GQKlS-sioT8mwrcqxMkO" name="添加任务流程">
    <mxGraphModel dx="1778" dy="690" grid="1" gridSize="10" guides="1" tooltips="1" connect="1" arrows="1" fold="1" page="0" pageScale="1" pageWidth="827" pageHeight="1169" math="0" shadow="0">
      <root>
        <mxCell id="t1N8OoI1Idy5QMUV6ws5-0" />
        <mxCell id="t1N8OoI1Idy5QMUV6ws5-1" parent="t1N8OoI1Idy5QMUV6ws5-0" />
        <mxCell id="t1N8OoI1Idy5QMUV6ws5-5" value="" style="edgeStyle=orthogonalEdgeStyle;rounded=0;orthogonalLoop=1;jettySize=auto;html=1;" parent="t1N8OoI1Idy5QMUV6ws5-1" source="t1N8OoI1Idy5QMUV6ws5-2" target="t1N8OoI1Idy5QMUV6ws5-4" edge="1">
          <mxGeometry relative="1" as="geometry" />
        </mxCell>
        <mxCell id="t1N8OoI1Idy5QMUV6ws5-2" value="点击 添加任务" style="rounded=1;whiteSpace=wrap;html=1;" parent="t1N8OoI1Idy5QMUV6ws5-1" vertex="1">
          <mxGeometry x="340" y="90" width="120" height="60" as="geometry" />
        </mxCell>
        <mxCell id="t1N8OoI1Idy5QMUV6ws5-4" value="选择原型" style="rounded=1;whiteSpace=wrap;html=1;" parent="t1N8OoI1Idy5QMUV6ws5-1" vertex="1">
          <mxGeometry x="340" y="200" width="120" height="60" as="geometry" />
        </mxCell>
        <mxCell id="t1N8OoI1Idy5QMUV6ws5-37" style="edgeStyle=orthogonalEdgeStyle;rounded=0;orthogonalLoop=1;jettySize=auto;html=1;entryX=1;entryY=0.5;entryDx=0;entryDy=0;" parent="t1N8OoI1Idy5QMUV6ws5-1" source="t1N8OoI1Idy5QMUV6ws5-6" target="t1N8OoI1Idy5QMUV6ws5-35" edge="1">
          <mxGeometry relative="1" as="geometry" />
        </mxCell>
        <mxCell id="t1N8OoI1Idy5QMUV6ws5-6" value="选择原型" style="rounded=1;whiteSpace=wrap;html=1;" parent="t1N8OoI1Idy5QMUV6ws5-1" vertex="1">
          <mxGeometry x="200" y="320" width="120" height="60" as="geometry" />
        </mxCell>
        <mxCell id="t1N8OoI1Idy5QMUV6ws5-7" value="" style="edgeStyle=orthogonalEdgeStyle;rounded=0;orthogonalLoop=1;jettySize=auto;html=1;" parent="t1N8OoI1Idy5QMUV6ws5-1" source="t1N8OoI1Idy5QMUV6ws5-4" target="t1N8OoI1Idy5QMUV6ws5-6" edge="1">
          <mxGeometry relative="1" as="geometry" />
        </mxCell>
        <mxCell id="t1N8OoI1Idy5QMUV6ws5-8" value="原型已上传" style="text;html=1;align=center;verticalAlign=middle;resizable=0;points=[];;labelBackgroundColor=#ffffff;" parent="t1N8OoI1Idy5QMUV6ws5-7" vertex="1" connectable="0">
          <mxGeometry x="-0.0588" y="28" relative="1" as="geometry">
            <mxPoint x="-28" y="40" as="offset" />
          </mxGeometry>
        </mxCell>
        <mxCell id="t1N8OoI1Idy5QMUV6ws5-10" value="点击上传新原型" style="rounded=1;whiteSpace=wrap;html=1;" parent="t1N8OoI1Idy5QMUV6ws5-1" vertex="1">
          <mxGeometry x="640" y="320" width="120" height="60" as="geometry" />
        </mxCell>
        <mxCell id="t1N8OoI1Idy5QMUV6ws5-11" value="" style="edgeStyle=orthogonalEdgeStyle;rounded=0;orthogonalLoop=1;jettySize=auto;html=1;entryX=0.5;entryY=0;entryDx=0;entryDy=0;" parent="t1N8OoI1Idy5QMUV6ws5-1" source="t1N8OoI1Idy5QMUV6ws5-4" target="t1N8OoI1Idy5QMUV6ws5-10" edge="1">
          <mxGeometry relative="1" as="geometry" />
        </mxCell>
        <mxCell id="t1N8OoI1Idy5QMUV6ws5-13" value="原型未上传" style="text;html=1;align=center;verticalAlign=middle;resizable=0;points=[];;labelBackgroundColor=#ffffff;" parent="t1N8OoI1Idy5QMUV6ws5-11" vertex="1" connectable="0">
          <mxGeometry x="-0.0111" y="-34" relative="1" as="geometry">
            <mxPoint x="77" y="-4" as="offset" />
          </mxGeometry>
        </mxCell>
        <mxCell id="t1N8OoI1Idy5QMUV6ws5-14" value="点击下一步" style="rounded=1;whiteSpace=wrap;html=1;" parent="t1N8OoI1Idy5QMUV6ws5-1" vertex="1">
          <mxGeometry x="200" y="460" width="120" height="60" as="geometry" />
        </mxCell>
        <mxCell id="t1N8OoI1Idy5QMUV6ws5-15" value="" style="edgeStyle=orthogonalEdgeStyle;rounded=0;orthogonalLoop=1;jettySize=auto;html=1;" parent="t1N8OoI1Idy5QMUV6ws5-1" source="t1N8OoI1Idy5QMUV6ws5-6" target="t1N8OoI1Idy5QMUV6ws5-14" edge="1">
          <mxGeometry relative="1" as="geometry" />
        </mxCell>
        <mxCell id="t1N8OoI1Idy5QMUV6ws5-17" value="上传到本站" style="rounded=1;whiteSpace=wrap;html=1;" parent="t1N8OoI1Idy5QMUV6ws5-1" vertex="1">
          <mxGeometry x="560" y="460" width="120" height="60" as="geometry" />
        </mxCell>
        <mxCell id="t1N8OoI1Idy5QMUV6ws5-18" value="" style="edgeStyle=orthogonalEdgeStyle;rounded=0;orthogonalLoop=1;jettySize=auto;html=1;" parent="t1N8OoI1Idy5QMUV6ws5-1" source="t1N8OoI1Idy5QMUV6ws5-10" target="t1N8OoI1Idy5QMUV6ws5-17" edge="1">
          <mxGeometry relative="1" as="geometry" />
        </mxCell>
        <mxCell id="t1N8OoI1Idy5QMUV6ws5-19" value="上传到AxureCloud" style="rounded=1;whiteSpace=wrap;html=1;" parent="t1N8OoI1Idy5QMUV6ws5-1" vertex="1">
          <mxGeometry x="720" y="460" width="120" height="60" as="geometry" />
        </mxCell>
        <mxCell id="t1N8OoI1Idy5QMUV6ws5-20" value="" style="edgeStyle=orthogonalEdgeStyle;rounded=0;orthogonalLoop=1;jettySize=auto;html=1;" parent="t1N8OoI1Idy5QMUV6ws5-1" source="t1N8OoI1Idy5QMUV6ws5-10" target="t1N8OoI1Idy5QMUV6ws5-19" edge="1">
          <mxGeometry relative="1" as="geometry" />
        </mxCell>
        <mxCell id="t1N8OoI1Idy5QMUV6ws5-23" value="在原型中跳转到&lt;br&gt;任务开始页" style="rounded=1;whiteSpace=wrap;html=1;" parent="t1N8OoI1Idy5QMUV6ws5-1" vertex="1">
          <mxGeometry x="200" y="600" width="120" height="60" as="geometry" />
        </mxCell>
        <mxCell id="t1N8OoI1Idy5QMUV6ws5-24" value="" style="edgeStyle=orthogonalEdgeStyle;rounded=0;orthogonalLoop=1;jettySize=auto;html=1;" parent="t1N8OoI1Idy5QMUV6ws5-1" source="t1N8OoI1Idy5QMUV6ws5-14" target="t1N8OoI1Idy5QMUV6ws5-23" edge="1">
          <mxGeometry relative="1" as="geometry" />
        </mxCell>
        <mxCell id="t1N8OoI1Idy5QMUV6ws5-32" style="edgeStyle=orthogonalEdgeStyle;rounded=0;orthogonalLoop=1;jettySize=auto;html=1;" parent="t1N8OoI1Idy5QMUV6ws5-1" source="t1N8OoI1Idy5QMUV6ws5-25" target="t1N8OoI1Idy5QMUV6ws5-31" edge="1">
          <mxGeometry relative="1" as="geometry" />
        </mxCell>
        <mxCell id="t1N8OoI1Idy5QMUV6ws5-25" value="输入任务信息" style="rounded=1;whiteSpace=wrap;html=1;" parent="t1N8OoI1Idy5QMUV6ws5-1" vertex="1">
          <mxGeometry x="200" y="740" width="120" height="60" as="geometry" />
        </mxCell>
        <mxCell id="t1N8OoI1Idy5QMUV6ws5-26" value="" style="edgeStyle=orthogonalEdgeStyle;rounded=0;orthogonalLoop=1;jettySize=auto;html=1;" parent="t1N8OoI1Idy5QMUV6ws5-1" source="t1N8OoI1Idy5QMUV6ws5-23" target="t1N8OoI1Idy5QMUV6ws5-25" edge="1">
          <mxGeometry relative="1" as="geometry" />
        </mxCell>
        <mxCell id="t1N8OoI1Idy5QMUV6ws5-43" style="edgeStyle=orthogonalEdgeStyle;rounded=0;orthogonalLoop=1;jettySize=auto;html=1;" parent="t1N8OoI1Idy5QMUV6ws5-1" source="t1N8OoI1Idy5QMUV6ws5-73" target="t1N8OoI1Idy5QMUV6ws5-42" edge="1">
          <mxGeometry relative="1" as="geometry" />
        </mxCell>
        <mxCell id="t1N8OoI1Idy5QMUV6ws5-27" value="点击开始录制" style="rounded=1;whiteSpace=wrap;html=1;" parent="t1N8OoI1Idy5QMUV6ws5-1" vertex="1">
          <mxGeometry x="200" y="880" width="120" height="60" as="geometry" />
        </mxCell>
        <mxCell id="t1N8OoI1Idy5QMUV6ws5-28" value="" style="edgeStyle=orthogonalEdgeStyle;rounded=0;orthogonalLoop=1;jettySize=auto;html=1;" parent="t1N8OoI1Idy5QMUV6ws5-1" source="t1N8OoI1Idy5QMUV6ws5-25" target="t1N8OoI1Idy5QMUV6ws5-27" edge="1">
          <mxGeometry relative="1" as="geometry" />
        </mxCell>
        <mxCell id="t1N8OoI1Idy5QMUV6ws5-34" style="edgeStyle=orthogonalEdgeStyle;rounded=0;orthogonalLoop=1;jettySize=auto;html=1;entryX=0;entryY=0.5;entryDx=0;entryDy=0;exitX=0;exitY=0.5;exitDx=0;exitDy=0;" parent="t1N8OoI1Idy5QMUV6ws5-1" source="t1N8OoI1Idy5QMUV6ws5-31" target="t1N8OoI1Idy5QMUV6ws5-2" edge="1">
          <mxGeometry relative="1" as="geometry" />
        </mxCell>
        <mxCell id="t1N8OoI1Idy5QMUV6ws5-31" value="点击取消" style="rounded=1;whiteSpace=wrap;html=1;" parent="t1N8OoI1Idy5QMUV6ws5-1" vertex="1">
          <mxGeometry x="30" y="740" width="120" height="60" as="geometry" />
        </mxCell>
        <mxCell id="t1N8OoI1Idy5QMUV6ws5-38" style="edgeStyle=orthogonalEdgeStyle;rounded=0;orthogonalLoop=1;jettySize=auto;html=1;entryX=0;entryY=0.5;entryDx=0;entryDy=0;exitX=0;exitY=0.5;exitDx=0;exitDy=0;" parent="t1N8OoI1Idy5QMUV6ws5-1" source="t1N8OoI1Idy5QMUV6ws5-35" target="t1N8OoI1Idy5QMUV6ws5-2" edge="1">
          <mxGeometry relative="1" as="geometry" />
        </mxCell>
        <mxCell id="t1N8OoI1Idy5QMUV6ws5-35" value="点击取消" style="rounded=1;whiteSpace=wrap;html=1;" parent="t1N8OoI1Idy5QMUV6ws5-1" vertex="1">
          <mxGeometry x="30" y="320" width="120" height="60" as="geometry" />
        </mxCell>
        <mxCell id="t1N8OoI1Idy5QMUV6ws5-41" style="edgeStyle=orthogonalEdgeStyle;rounded=0;orthogonalLoop=1;jettySize=auto;html=1;exitX=0;exitY=0.5;exitDx=0;exitDy=0;entryX=0;entryY=0.5;entryDx=0;entryDy=0;" parent="t1N8OoI1Idy5QMUV6ws5-1" source="t1N8OoI1Idy5QMUV6ws5-39" target="t1N8OoI1Idy5QMUV6ws5-2" edge="1">
          <mxGeometry relative="1" as="geometry" />
        </mxCell>
        <mxCell id="t1N8OoI1Idy5QMUV6ws5-39" value="点击取消" style="rounded=1;whiteSpace=wrap;html=1;" parent="t1N8OoI1Idy5QMUV6ws5-1" vertex="1">
          <mxGeometry x="30" y="1180" width="120" height="60" as="geometry" />
        </mxCell>
        <mxCell id="t1N8OoI1Idy5QMUV6ws5-44" style="edgeStyle=orthogonalEdgeStyle;rounded=0;orthogonalLoop=1;jettySize=auto;html=1;exitX=0;exitY=0.5;exitDx=0;exitDy=0;entryX=1;entryY=0.5;entryDx=0;entryDy=0;" parent="t1N8OoI1Idy5QMUV6ws5-1" source="t1N8OoI1Idy5QMUV6ws5-42" target="t1N8OoI1Idy5QMUV6ws5-39" edge="1">
          <mxGeometry relative="1" as="geometry" />
        </mxCell>
        <mxCell id="t1N8OoI1Idy5QMUV6ws5-46" style="edgeStyle=orthogonalEdgeStyle;rounded=0;orthogonalLoop=1;jettySize=auto;html=1;" parent="t1N8OoI1Idy5QMUV6ws5-1" source="t1N8OoI1Idy5QMUV6ws5-42" target="t1N8OoI1Idy5QMUV6ws5-45" edge="1">
          <mxGeometry relative="1" as="geometry" />
        </mxCell>
        <mxCell id="t1N8OoI1Idy5QMUV6ws5-42" value="在原型中操作" style="rounded=1;whiteSpace=wrap;html=1;" parent="t1N8OoI1Idy5QMUV6ws5-1" vertex="1">
          <mxGeometry x="200" y="1180" width="120" height="60" as="geometry" />
        </mxCell>
        <mxCell id="t1N8OoI1Idy5QMUV6ws5-45" value="点击结束" style="rounded=1;whiteSpace=wrap;html=1;" parent="t1N8OoI1Idy5QMUV6ws5-1" vertex="1">
          <mxGeometry x="200" y="1300" width="120" height="60" as="geometry" />
        </mxCell>
        <mxCell id="t1N8OoI1Idy5QMUV6ws5-52" value="" style="strokeWidth=1;shadow=0;dashed=0;align=center;html=1;shape=mxgraph.mockup.containers.browserWindow;rSize=0;strokeColor=#666666;strokeColor2=#008cff;strokeColor3=#c4c4c4;mainText=,;recursiveResize=0;" parent="t1N8OoI1Idy5QMUV6ws5-1" vertex="1">
          <mxGeometry x="1240" y="740" width="650" height="330" as="geometry" />
        </mxCell>
        <mxCell id="t1N8OoI1Idy5QMUV6ws5-53" value="Page 1" style="strokeWidth=1;shadow=0;dashed=0;align=center;html=1;shape=mxgraph.mockup.containers.anchor;fontSize=17;fontColor=#666666;align=left;" parent="t1N8OoI1Idy5QMUV6ws5-52" vertex="1">
          <mxGeometry x="60" y="12" width="110" height="26" as="geometry" />
        </mxCell>
        <mxCell id="t1N8OoI1Idy5QMUV6ws5-54" value="https://localhost:8081/uploadproto" style="strokeWidth=1;shadow=0;dashed=0;align=center;html=1;shape=mxgraph.mockup.containers.anchor;rSize=0;fontSize=17;fontColor=#666666;align=left;" parent="t1N8OoI1Idy5QMUV6ws5-52" vertex="1">
          <mxGeometry x="130" y="60" width="250" height="26" as="geometry" />
        </mxCell>
        <mxCell id="t1N8OoI1Idy5QMUV6ws5-68" value="方式1" style="text;html=1;strokeColor=none;fillColor=none;align=left;verticalAlign=middle;whiteSpace=wrap;rounded=0;fontSize=17;" parent="t1N8OoI1Idy5QMUV6ws5-52" vertex="1">
          <mxGeometry x="40" y="210" width="110" height="20" as="geometry" />
        </mxCell>
        <mxCell id="t1N8OoI1Idy5QMUV6ws5-69" value="方式2" style="text;html=1;strokeColor=none;fillColor=none;align=left;verticalAlign=middle;whiteSpace=wrap;rounded=0;fontSize=17;" parent="t1N8OoI1Idy5QMUV6ws5-52" vertex="1">
          <mxGeometry x="340" y="210" width="110" height="20" as="geometry" />
        </mxCell>
        <mxCell id="t1N8OoI1Idy5QMUV6ws5-70" value="上传到本站" style="strokeWidth=1;shadow=0;dashed=0;align=center;html=1;shape=mxgraph.mockup.buttons.button;strokeColor=#666666;mainText=;buttonStyle=round;fontSize=17;fontStyle=1;fillColor=#f5f5f5;whiteSpace=wrap;fontColor=#333333;" parent="t1N8OoI1Idy5QMUV6ws5-52" vertex="1">
          <mxGeometry x="340" y="240" width="150" height="50" as="geometry" />
        </mxCell>
        <mxCell id="t1N8OoI1Idy5QMUV6ws5-71" value="上传到AxureCloud" style="strokeWidth=1;shadow=0;dashed=0;align=center;html=1;shape=mxgraph.mockup.buttons.button;strokeColor=#666666;fontColor=#ffffff;mainText=;buttonStyle=round;fontSize=17;fontStyle=1;fillColor=#008cff;whiteSpace=wrap;" parent="t1N8OoI1Idy5QMUV6ws5-52" vertex="1">
          <mxGeometry x="40" y="240" width="150" height="50" as="geometry" />
        </mxCell>
        <mxCell id="t1N8OoI1Idy5QMUV6ws5-108" value="原型的所有html都需添加脚本方能收集测试数据。选择一种方式。" style="text;html=1;strokeColor=none;fillColor=none;align=left;verticalAlign=middle;whiteSpace=wrap;rounded=0;fontSize=24;" parent="t1N8OoI1Idy5QMUV6ws5-52" vertex="1">
          <mxGeometry x="40" y="110" width="570" height="90" as="geometry" />
        </mxCell>
        <mxCell id="t1N8OoI1Idy5QMUV6ws5-55" value="" style="strokeWidth=1;shadow=0;dashed=0;align=center;html=1;shape=mxgraph.mockup.containers.rrect;rSize=0;strokeColor=#666666;fontColor=#666666;fontSize=17;verticalAlign=top;whiteSpace=wrap;fillColor=#ffffff;spacingTop=32;" parent="t1N8OoI1Idy5QMUV6ws5-1" vertex="1">
          <mxGeometry x="1240" y="240" width="650" height="380" as="geometry" />
        </mxCell>
        <mxCell id="t1N8OoI1Idy5QMUV6ws5-56" value="添加任务" style="strokeWidth=1;shadow=0;dashed=0;align=center;html=1;shape=mxgraph.mockup.containers.rrect;rSize=0;fontSize=17;fontColor=#666666;strokeColor=#666666;align=left;spacingLeft=8;fillColor=none;resizeWidth=1;" parent="t1N8OoI1Idy5QMUV6ws5-55" vertex="1">
          <mxGeometry width="650" height="30" relative="1" as="geometry" />
        </mxCell>
        <mxCell id="t1N8OoI1Idy5QMUV6ws5-57" value="" style="shape=ellipse;strokeColor=#008cff;resizable=0;fillColor=none;html=1;" parent="t1N8OoI1Idy5QMUV6ws5-56" vertex="1">
          <mxGeometry x="1" y="0.5" width="20" height="20" relative="1" as="geometry">
            <mxPoint x="-25" y="-10" as="offset" />
          </mxGeometry>
        </mxCell>
        <mxCell id="t1N8OoI1Idy5QMUV6ws5-58" value="Cancel" style="strokeWidth=1;shadow=0;dashed=0;align=center;html=1;shape=mxgraph.mockup.containers.rrect;rSize=0;fontSize=16;fontColor=#666666;strokeColor=#c4c4c4;whiteSpace=wrap;fillColor=none;" parent="t1N8OoI1Idy5QMUV6ws5-55" vertex="1">
          <mxGeometry x="0.25" y="1" width="90" height="25" relative="1" as="geometry">
            <mxPoint x="267.5" y="-40" as="offset" />
          </mxGeometry>
        </mxCell>
        <mxCell id="t1N8OoI1Idy5QMUV6ws5-59" value="OK" style="strokeWidth=1;shadow=0;dashed=0;align=center;html=1;shape=mxgraph.mockup.containers.rrect;rSize=0;fontSize=16;fontColor=#666666;strokeColor=#c4c4c4;whiteSpace=wrap;fillColor=none;" parent="t1N8OoI1Idy5QMUV6ws5-55" vertex="1">
          <mxGeometry x="0.75" y="1" width="90" height="25" relative="1" as="geometry">
            <mxPoint x="42.5" y="-40" as="offset" />
          </mxGeometry>
        </mxCell>
        <mxCell id="t1N8OoI1Idy5QMUV6ws5-61" value="" style="strokeWidth=1;shadow=0;dashed=0;align=center;html=1;shape=mxgraph.mockup.forms.rrect;rSize=0;strokeColor=#999999;fillColor=#ffffff;" parent="t1N8OoI1Idy5QMUV6ws5-55" vertex="1">
          <mxGeometry x="30" y="60" width="590" height="200" as="geometry" />
        </mxCell>
        <mxCell id="t1N8OoI1Idy5QMUV6ws5-62" value="选择原型" style="strokeWidth=1;shadow=0;dashed=0;align=center;html=1;shape=mxgraph.mockup.forms.rrect;rSize=0;strokeColor=#999999;fontColor=#008cff;fontSize=17;fillColor=#ffffff;resizeWidth=1;" parent="t1N8OoI1Idy5QMUV6ws5-61" vertex="1">
          <mxGeometry width="590" height="30" relative="1" as="geometry" />
        </mxCell>
        <mxCell id="t1N8OoI1Idy5QMUV6ws5-63" value="Item 1" style="strokeWidth=1;shadow=0;dashed=0;align=center;html=1;shape=mxgraph.mockup.forms.anchor;fontSize=17;fontColor=#666666;align=left;spacingLeft=5;resizeWidth=1;" parent="t1N8OoI1Idy5QMUV6ws5-61" vertex="1">
          <mxGeometry width="590" height="20" relative="1" as="geometry">
            <mxPoint y="30" as="offset" />
          </mxGeometry>
        </mxCell>
        <mxCell id="t1N8OoI1Idy5QMUV6ws5-64" value="Item 2" style="strokeWidth=1;shadow=0;dashed=0;align=center;html=1;shape=mxgraph.mockup.forms.anchor;fontSize=17;fontColor=#666666;align=left;spacingLeft=5;resizeWidth=1;" parent="t1N8OoI1Idy5QMUV6ws5-61" vertex="1">
          <mxGeometry width="590" height="20" relative="1" as="geometry">
            <mxPoint y="50" as="offset" />
          </mxGeometry>
        </mxCell>
        <mxCell id="t1N8OoI1Idy5QMUV6ws5-65" value="Item 3" style="strokeWidth=1;shadow=0;dashed=0;align=center;html=1;shape=mxgraph.mockup.forms.rrect;rSize=0;fontSize=17;fontColor=#666666;align=left;spacingLeft=5;fillColor=#ddeeff;strokeColor=none;resizeWidth=1;" parent="t1N8OoI1Idy5QMUV6ws5-61" vertex="1">
          <mxGeometry width="590" height="20" relative="1" as="geometry">
            <mxPoint y="70" as="offset" />
          </mxGeometry>
        </mxCell>
        <mxCell id="t1N8OoI1Idy5QMUV6ws5-66" value="Item 4" style="strokeWidth=1;shadow=0;dashed=0;align=center;html=1;shape=mxgraph.mockup.forms.anchor;fontSize=17;fontColor=#666666;align=left;spacingLeft=5;resizeWidth=1;" parent="t1N8OoI1Idy5QMUV6ws5-61" vertex="1">
          <mxGeometry width="590" height="20" relative="1" as="geometry">
            <mxPoint y="90" as="offset" />
          </mxGeometry>
        </mxCell>
        <mxCell id="t1N8OoI1Idy5QMUV6ws5-67" value="添加新原型" style="strokeWidth=1;shadow=0;dashed=0;align=center;html=1;shape=mxgraph.mockup.buttons.button;strokeColor=#666666;fontColor=#ffffff;mainText=;buttonStyle=round;fontSize=17;fontStyle=1;fillColor=#008cff;whiteSpace=wrap;" parent="t1N8OoI1Idy5QMUV6ws5-55" vertex="1">
          <mxGeometry x="30" y="310" width="150" height="50" as="geometry" />
        </mxCell>
        <mxCell id="t1N8OoI1Idy5QMUV6ws5-72" style="edgeStyle=orthogonalEdgeStyle;rounded=0;orthogonalLoop=1;jettySize=auto;html=1;fontSize=17;" parent="t1N8OoI1Idy5QMUV6ws5-1" source="t1N8OoI1Idy5QMUV6ws5-67" target="t1N8OoI1Idy5QMUV6ws5-52" edge="1">
          <mxGeometry relative="1" as="geometry" />
        </mxCell>
        <mxCell id="t1N8OoI1Idy5QMUV6ws5-73" value="启动录制" style="shape=process;whiteSpace=wrap;html=1;backgroundOutline=1;fontSize=17;align=left;" parent="t1N8OoI1Idy5QMUV6ws5-1" vertex="1">
          <mxGeometry x="200" y="1020" width="120" height="60" as="geometry" />
        </mxCell>
        <mxCell id="t1N8OoI1Idy5QMUV6ws5-74" style="edgeStyle=orthogonalEdgeStyle;rounded=0;orthogonalLoop=1;jettySize=auto;html=1;" parent="t1N8OoI1Idy5QMUV6ws5-1" source="t1N8OoI1Idy5QMUV6ws5-27" target="t1N8OoI1Idy5QMUV6ws5-73" edge="1">
          <mxGeometry relative="1" as="geometry">
            <mxPoint x="260" y="940" as="sourcePoint" />
            <mxPoint x="260" y="1180" as="targetPoint" />
          </mxGeometry>
        </mxCell>
        <mxCell id="t1N8OoI1Idy5QMUV6ws5-75" value="" style="strokeWidth=1;shadow=0;dashed=0;align=left;html=1;shape=mxgraph.mockup.containers.browserWindow;rSize=0;strokeColor=#666666;strokeColor2=#008cff;strokeColor3=#c4c4c4;mainText=,;recursiveResize=0;fontStyle=1;verticalAlign=top;" parent="t1N8OoI1Idy5QMUV6ws5-1" vertex="1">
          <mxGeometry x="920" y="1210" width="650" height="680" as="geometry" />
        </mxCell>
        <mxCell id="t1N8OoI1Idy5QMUV6ws5-76" value="Page 1" style="strokeWidth=1;shadow=0;dashed=0;align=center;html=1;shape=mxgraph.mockup.containers.anchor;fontSize=17;fontColor=#666666;align=left;" parent="t1N8OoI1Idy5QMUV6ws5-75" vertex="1">
          <mxGeometry x="60" y="12" width="110" height="26" as="geometry" />
        </mxCell>
        <mxCell id="t1N8OoI1Idy5QMUV6ws5-77" value="https://localhost:8081/uploadproto/axurecloud" style="strokeWidth=1;shadow=0;dashed=0;align=center;html=1;shape=mxgraph.mockup.containers.anchor;rSize=0;fontSize=17;fontColor=#666666;align=left;" parent="t1N8OoI1Idy5QMUV6ws5-75" vertex="1">
          <mxGeometry x="130" y="60" width="250" height="26" as="geometry" />
        </mxCell>
        <mxCell id="t1N8OoI1Idy5QMUV6ws5-78" value="1. 登录 Axure Cloud&lt;span style=&quot;&quot;&gt; ，添加原型&lt;/span&gt;" style="text;html=1;strokeColor=none;fillColor=none;align=left;verticalAlign=middle;whiteSpace=wrap;rounded=0;fontSize=17;fontStyle=1" parent="t1N8OoI1Idy5QMUV6ws5-75" vertex="1">
          <mxGeometry x="40" y="280" width="570" height="20" as="geometry" />
        </mxCell>
        <mxCell id="t1N8OoI1Idy5QMUV6ws5-82" value="执行以下步骤" style="text;html=1;strokeColor=none;fillColor=none;align=left;verticalAlign=middle;whiteSpace=wrap;rounded=0;fontSize=24;" parent="t1N8OoI1Idy5QMUV6ws5-75" vertex="1">
          <mxGeometry x="40" y="240" width="530" height="20" as="geometry" />
        </mxCell>
        <mxCell id="t1N8OoI1Idy5QMUV6ws5-83" value="准备事项" style="text;html=1;strokeColor=none;fillColor=none;align=left;verticalAlign=middle;whiteSpace=wrap;rounded=0;fontSize=24;" parent="t1N8OoI1Idy5QMUV6ws5-75" vertex="1">
          <mxGeometry x="40" y="140" width="530" height="20" as="geometry" />
        </mxCell>
        <mxCell id="t1N8OoI1Idy5QMUV6ws5-84" value="Axure Cloud 账号，没有账号？" style="text;html=1;strokeColor=none;fillColor=none;align=left;verticalAlign=middle;whiteSpace=wrap;rounded=0;fontSize=17;" parent="t1N8OoI1Idy5QMUV6ws5-75" vertex="1">
          <mxGeometry x="40" y="180" width="240" height="20" as="geometry" />
        </mxCell>
        <mxCell id="t1N8OoI1Idy5QMUV6ws5-85" value="去注册" style="shape=rectangle;strokeColor=none;fillColor=none;linkText=;fontSize=17;fontColor=#0000ff;fontStyle=4;html=1;align=center;" parent="t1N8OoI1Idy5QMUV6ws5-75" vertex="1">
          <mxGeometry x="270" y="175" width="70" height="30" as="geometry" />
        </mxCell>
        <mxCell id="t1N8OoI1Idy5QMUV6ws5-86" value="打开 地址 ，登录后添加原型，若原型已上传过，则跳过此步。" style="text;html=1;strokeColor=none;fillColor=none;align=left;verticalAlign=middle;whiteSpace=wrap;rounded=0;fontSize=17;" parent="t1N8OoI1Idy5QMUV6ws5-75" vertex="1">
          <mxGeometry x="40" y="310" width="560" height="20" as="geometry" />
        </mxCell>
        <mxCell id="t1N8OoI1Idy5QMUV6ws5-89" value="2. 添加插件" style="text;html=1;strokeColor=none;fillColor=none;align=left;verticalAlign=middle;whiteSpace=wrap;rounded=0;fontSize=17;fontStyle=1" parent="t1N8OoI1Idy5QMUV6ws5-75" vertex="1">
          <mxGeometry x="40" y="340" width="570" height="20" as="geometry" />
        </mxCell>
        <mxCell id="t1N8OoI1Idy5QMUV6ws5-90" value="进入 Plugs，添加插件，输入以下内容并保存。" style="text;html=1;strokeColor=none;fillColor=none;align=left;verticalAlign=middle;whiteSpace=wrap;rounded=0;fontSize=17;" parent="t1N8OoI1Idy5QMUV6ws5-75" vertex="1">
          <mxGeometry x="40" y="370" width="560" height="20" as="geometry" />
        </mxCell>
        <mxCell id="t1N8OoI1Idy5QMUV6ws5-92" value="3. 将原型地址粘贴到此处" style="text;html=1;strokeColor=none;fillColor=none;align=left;verticalAlign=middle;whiteSpace=wrap;rounded=0;fontSize=17;fontStyle=1" parent="t1N8OoI1Idy5QMUV6ws5-75" vertex="1">
          <mxGeometry x="40" y="470" width="570" height="20" as="geometry" />
        </mxCell>
        <mxCell id="t1N8OoI1Idy5QMUV6ws5-94" value="Line 1" style="strokeWidth=1;shadow=0;dashed=0;align=center;html=1;shape=mxgraph.mockup.text.textBox;fontColor=#666666;align=left;fontSize=17;spacingLeft=4;spacingTop=-3;strokeColor=#666666;mainText=;verticalAlign=top;fillColor=#E6E6E6;whiteSpace=wrap;" parent="t1N8OoI1Idy5QMUV6ws5-75" vertex="1">
          <mxGeometry x="40" y="400" width="570" height="50" as="geometry" />
        </mxCell>
        <mxCell id="t1N8OoI1Idy5QMUV6ws5-91" value="输入原型地址" style="strokeWidth=1;shadow=0;dashed=0;align=center;html=1;shape=mxgraph.mockup.text.textBox;fontColor=#666666;align=left;fontSize=17;spacingLeft=4;spacingTop=-3;strokeColor=#666666;mainText=" parent="t1N8OoI1Idy5QMUV6ws5-75" vertex="1">
          <mxGeometry x="40" y="500" width="570" height="40" as="geometry" />
        </mxCell>
        <mxCell id="t1N8OoI1Idy5QMUV6ws5-81" value="开始设置任务" style="strokeWidth=1;shadow=0;dashed=0;align=center;html=1;shape=mxgraph.mockup.buttons.button;strokeColor=#666666;fontColor=#ffffff;mainText=;buttonStyle=round;fontSize=17;fontStyle=1;fillColor=#008cff;whiteSpace=wrap;" parent="t1N8OoI1Idy5QMUV6ws5-75" vertex="1">
          <mxGeometry x="470" y="610" width="140" height="50" as="geometry" />
        </mxCell>
        <mxCell id="Mqe3Lt3xieHkKMghgsf6-6" value="原型地址无效，。。。" style="text;html=1;strokeColor=none;fillColor=none;align=left;verticalAlign=middle;whiteSpace=wrap;rounded=0;labelBackgroundColor=none;fontSize=18;fontColor=#333333;" parent="t1N8OoI1Idy5QMUV6ws5-75" vertex="1">
          <mxGeometry x="40" y="550" width="370" height="20" as="geometry" />
        </mxCell>
        <mxCell id="t1N8OoI1Idy5QMUV6ws5-95" value="" style="strokeWidth=1;shadow=0;dashed=0;align=center;html=1;shape=mxgraph.mockup.containers.browserWindow;rSize=0;strokeColor=#666666;strokeColor2=#008cff;strokeColor3=#c4c4c4;mainText=,;recursiveResize=0;" parent="t1N8OoI1Idy5QMUV6ws5-1" vertex="1">
          <mxGeometry x="1620" y="1210" width="650" height="480" as="geometry" />
        </mxCell>
        <mxCell id="t1N8OoI1Idy5QMUV6ws5-96" value="Page 1" style="strokeWidth=1;shadow=0;dashed=0;align=center;html=1;shape=mxgraph.mockup.containers.anchor;fontSize=17;fontColor=#666666;align=left;" parent="t1N8OoI1Idy5QMUV6ws5-95" vertex="1">
          <mxGeometry x="60" y="12" width="110" height="26" as="geometry" />
        </mxCell>
        <mxCell id="t1N8OoI1Idy5QMUV6ws5-97" value="https://localhost:8081/uploadproto/local" style="strokeWidth=1;shadow=0;dashed=0;align=center;html=1;shape=mxgraph.mockup.containers.anchor;rSize=0;fontSize=17;fontColor=#666666;align=left;" parent="t1N8OoI1Idy5QMUV6ws5-95" vertex="1">
          <mxGeometry x="130" y="60" width="250" height="26" as="geometry" />
        </mxCell>
        <mxCell id="t1N8OoI1Idy5QMUV6ws5-104" value="" style="shape=mxgraph.mockup.containers.marginRect;rectMarginTop=10;strokeColor=#666666;strokeWidth=1;dashed=0;rounded=1;arcSize=5;recursiveResize=0;fillColor=#E6E6E6;fontSize=24;align=left;" parent="t1N8OoI1Idy5QMUV6ws5-95" vertex="1">
          <mxGeometry x="40" y="150" width="580" height="220" as="geometry" />
        </mxCell>
        <mxCell id="t1N8OoI1Idy5QMUV6ws5-105" value="将文件打包为 zip 后拖放到此处" style="shape=rect;strokeColor=none;fillColor=#008cff;strokeWidth=1;dashed=0;rounded=1;arcSize=20;fontColor=#ffffff;fontSize=17;spacing=2;spacingTop=-2;align=left;autosize=1;spacingLeft=4;resizeWidth=0;resizeHeight=0;perimeter=none;fontStyle=1" parent="t1N8OoI1Idy5QMUV6ws5-104" vertex="1">
          <mxGeometry x="5" width="260" height="30" as="geometry" />
        </mxCell>
        <mxCell id="t1N8OoI1Idy5QMUV6ws5-106" style="edgeStyle=orthogonalEdgeStyle;rounded=0;orthogonalLoop=1;jettySize=auto;html=1;fontSize=24;" parent="t1N8OoI1Idy5QMUV6ws5-1" source="t1N8OoI1Idy5QMUV6ws5-71" target="t1N8OoI1Idy5QMUV6ws5-75" edge="1">
          <mxGeometry relative="1" as="geometry" />
        </mxCell>
        <mxCell id="t1N8OoI1Idy5QMUV6ws5-107" style="edgeStyle=orthogonalEdgeStyle;rounded=0;orthogonalLoop=1;jettySize=auto;html=1;fontSize=24;" parent="t1N8OoI1Idy5QMUV6ws5-1" source="t1N8OoI1Idy5QMUV6ws5-70" target="t1N8OoI1Idy5QMUV6ws5-95" edge="1">
          <mxGeometry relative="1" as="geometry" />
        </mxCell>
        <mxCell id="t1N8OoI1Idy5QMUV6ws5-112" value="" style="strokeWidth=1;shadow=0;dashed=0;align=center;html=1;shape=mxgraph.mockup.containers.browserWindow;rSize=0;strokeColor=#666666;strokeColor2=#008cff;strokeColor3=#c4c4c4;mainText=,;recursiveResize=0;" parent="t1N8OoI1Idy5QMUV6ws5-1" vertex="1">
          <mxGeometry x="2270" y="1210" width="650" height="480" as="geometry" />
        </mxCell>
        <mxCell id="t1N8OoI1Idy5QMUV6ws5-113" value="Page 1" style="strokeWidth=1;shadow=0;dashed=0;align=center;html=1;shape=mxgraph.mockup.containers.anchor;fontSize=17;fontColor=#666666;align=left;" parent="t1N8OoI1Idy5QMUV6ws5-112" vertex="1">
          <mxGeometry x="60" y="12" width="110" height="26" as="geometry" />
        </mxCell>
        <mxCell id="t1N8OoI1Idy5QMUV6ws5-114" value="https://localhost:8081/uploadproto/local" style="strokeWidth=1;shadow=0;dashed=0;align=center;html=1;shape=mxgraph.mockup.containers.anchor;rSize=0;fontSize=17;fontColor=#666666;align=left;" parent="t1N8OoI1Idy5QMUV6ws5-112" vertex="1">
          <mxGeometry x="130" y="60" width="250" height="26" as="geometry" />
        </mxCell>
        <mxCell id="t1N8OoI1Idy5QMUV6ws5-118" value="" style="verticalLabelPosition=bottom;shadow=0;dashed=0;align=center;html=1;verticalAlign=top;strokeWidth=1;shape=mxgraph.mockup.misc.loading_circle_2;pointerEvents=1;fillColor=#E6E6E6;fontSize=24;" parent="t1N8OoI1Idy5QMUV6ws5-112" vertex="1">
          <mxGeometry x="300" y="220" width="50" height="50" as="geometry" />
        </mxCell>
        <mxCell id="t1N8OoI1Idy5QMUV6ws5-123" value="正在处理..." style="text;html=1;strokeColor=none;fillColor=none;align=center;verticalAlign=middle;whiteSpace=wrap;rounded=0;fontSize=24;opacity=50;" parent="t1N8OoI1Idy5QMUV6ws5-112" vertex="1">
          <mxGeometry x="242.5" y="300" width="165" height="20" as="geometry" />
        </mxCell>
        <mxCell id="t1N8OoI1Idy5QMUV6ws5-124" value="" style="strokeWidth=1;shadow=0;dashed=0;align=center;html=1;shape=mxgraph.mockup.containers.browserWindow;rSize=0;strokeColor=#666666;strokeColor2=#008cff;strokeColor3=#c4c4c4;mainText=,;recursiveResize=0;" parent="t1N8OoI1Idy5QMUV6ws5-1" vertex="1">
          <mxGeometry x="2920" y="1210" width="650" height="480" as="geometry" />
        </mxCell>
        <mxCell id="t1N8OoI1Idy5QMUV6ws5-125" value="Page 1" style="strokeWidth=1;shadow=0;dashed=0;align=center;html=1;shape=mxgraph.mockup.containers.anchor;fontSize=17;fontColor=#666666;align=left;" parent="t1N8OoI1Idy5QMUV6ws5-124" vertex="1">
          <mxGeometry x="60" y="12" width="110" height="26" as="geometry" />
        </mxCell>
        <mxCell id="t1N8OoI1Idy5QMUV6ws5-126" value="https://localhost:8081/uploadproto/local" style="strokeWidth=1;shadow=0;dashed=0;align=center;html=1;shape=mxgraph.mockup.containers.anchor;rSize=0;fontSize=17;fontColor=#666666;align=left;" parent="t1N8OoI1Idy5QMUV6ws5-124" vertex="1">
          <mxGeometry x="130" y="60" width="250" height="26" as="geometry" />
        </mxCell>
        <mxCell id="t1N8OoI1Idy5QMUV6ws5-127" value="开始设置任务" style="strokeWidth=1;shadow=0;dashed=0;align=center;html=1;shape=mxgraph.mockup.buttons.button;strokeColor=#666666;fontColor=#ffffff;mainText=;buttonStyle=round;fontSize=17;fontStyle=1;fillColor=#008cff;whiteSpace=wrap;" parent="t1N8OoI1Idy5QMUV6ws5-124" vertex="1">
          <mxGeometry x="250" y="270" width="150" height="50" as="geometry" />
        </mxCell>
        <mxCell id="t1N8OoI1Idy5QMUV6ws5-130" value="原型处理完成" style="text;html=1;strokeColor=none;fillColor=none;align=center;verticalAlign=middle;whiteSpace=wrap;rounded=0;fontSize=24;opacity=50;" parent="t1N8OoI1Idy5QMUV6ws5-124" vertex="1">
          <mxGeometry x="222.5" y="220" width="205" height="20" as="geometry" />
        </mxCell>
        <mxCell id="t1N8OoI1Idy5QMUV6ws5-131" value="" style="strokeWidth=1;shadow=0;dashed=0;align=center;html=1;shape=mxgraph.mockup.containers.browserWindow;rSize=0;strokeColor=#666666;strokeColor2=#008cff;strokeColor3=#c4c4c4;mainText=,;recursiveResize=0;fillColor=#FFFFFF;fontSize=24;" parent="t1N8OoI1Idy5QMUV6ws5-1" vertex="1">
          <mxGeometry x="920" y="1990" width="860" height="600" as="geometry" />
        </mxCell>
        <mxCell id="t1N8OoI1Idy5QMUV6ws5-132" value="Page 1" style="strokeWidth=1;shadow=0;dashed=0;align=center;html=1;shape=mxgraph.mockup.containers.anchor;fontSize=17;fontColor=#666666;align=left;" parent="t1N8OoI1Idy5QMUV6ws5-131" vertex="1">
          <mxGeometry x="60" y="12" width="110" height="26" as="geometry" />
        </mxCell>
        <mxCell id="t1N8OoI1Idy5QMUV6ws5-133" value="https://localhost:8081/tasks/newtask" style="strokeWidth=1;shadow=0;dashed=0;align=center;html=1;shape=mxgraph.mockup.containers.anchor;rSize=0;fontSize=17;fontColor=#666666;align=left;" parent="t1N8OoI1Idy5QMUV6ws5-131" vertex="1">
          <mxGeometry x="130" y="60" width="250" height="26" as="geometry" />
        </mxCell>
        <mxCell id="PHAPu06FqjsyOvMfqiaB-0" value="" style="group" vertex="1" connectable="0" parent="t1N8OoI1Idy5QMUV6ws5-131">
          <mxGeometry x="30" y="160" width="420" height="310" as="geometry" />
        </mxCell>
        <mxCell id="t1N8OoI1Idy5QMUV6ws5-144" value="名称" style="strokeWidth=1;shadow=0;dashed=0;align=center;html=1;shape=mxgraph.mockup.forms.anchor;align=right;spacingRight=2;fontColor=#666666;fillColor=#FFFFFF;fontSize=13;" parent="PHAPu06FqjsyOvMfqiaB-0" vertex="1">
          <mxGeometry y="56" width="60" height="18" as="geometry" />
        </mxCell>
        <mxCell id="t1N8OoI1Idy5QMUV6ws5-145" value="" style="strokeWidth=1;shadow=0;dashed=0;align=center;html=1;shape=mxgraph.mockup.forms.rrect;fillColor=#ffffff;rSize=0;fontColor=#666666;align=left;spacingLeft=3;strokeColor=#999999;" parent="PHAPu06FqjsyOvMfqiaB-0" vertex="1">
          <mxGeometry x="70" y="50" width="350" height="30" as="geometry" />
        </mxCell>
        <mxCell id="t1N8OoI1Idy5QMUV6ws5-146" value="&lt;span style=&quot;font-size: 13px ; white-space: normal&quot;&gt;例如：“请通过搜索找到 iphone11 pro ，并选择&lt;/span&gt;&lt;span style=&quot;font-size: 13px&quot;&gt;黑色的128g版本加入到&lt;/span&gt;&lt;span style=&quot;font-size: 13px ; white-space: normal&quot;&gt;购物车。”&lt;/span&gt;&lt;span style=&quot;font-size: 13px ; white-space: normal&quot;&gt;&lt;br&gt;&lt;/span&gt;" style="strokeWidth=1;shadow=0;dashed=0;align=center;html=1;shape=mxgraph.mockup.forms.rrect;fillColor=#ffffff;rSize=0;fontColor=#B0B0B0;align=left;spacingLeft=3;strokeColor=#999999;verticalAlign=top;whiteSpace=wrap;" parent="PHAPu06FqjsyOvMfqiaB-0" vertex="1">
          <mxGeometry x="70" y="100" width="350" height="135" as="geometry" />
        </mxCell>
        <mxCell id="t1N8OoI1Idy5QMUV6ws5-152" value="任务目标" style="strokeWidth=1;shadow=0;dashed=0;align=center;html=1;shape=mxgraph.mockup.forms.anchor;align=right;spacingRight=2;fontColor=#666666;fillColor=#FFFFFF;fontSize=13;" parent="PHAPu06FqjsyOvMfqiaB-0" vertex="1">
          <mxGeometry y="100" width="60" height="18" as="geometry" />
        </mxCell>
        <mxCell id="t1N8OoI1Idy5QMUV6ws5-153" value="下一步" style="strokeWidth=1;shadow=0;dashed=0;align=center;html=1;shape=mxgraph.mockup.buttons.button;strokeColor=#666666;fontColor=#ffffff;mainText=;buttonStyle=round;fontSize=17;fontStyle=1;fillColor=#008cff;whiteSpace=wrap;" parent="PHAPu06FqjsyOvMfqiaB-0" vertex="1">
          <mxGeometry x="270" y="260" width="150" height="50" as="geometry" />
        </mxCell>
        <mxCell id="t1N8OoI1Idy5QMUV6ws5-157" value="任务描述" style="text;html=1;strokeColor=none;fillColor=none;align=left;verticalAlign=top;whiteSpace=wrap;rounded=0;fontSize=23;fontColor=#333333;" parent="PHAPu06FqjsyOvMfqiaB-0" vertex="1">
          <mxGeometry width="300" height="30" as="geometry" />
        </mxCell>
        <mxCell id="t1N8OoI1Idy5QMUV6ws5-158" value="" style="strokeWidth=1;shadow=0;dashed=0;align=center;html=1;shape=mxgraph.mockup.containers.browserWindow;rSize=0;strokeColor=#666666;strokeColor2=#008cff;strokeColor3=#c4c4c4;mainText=,;recursiveResize=0;fillColor=#FFFFFF;fontSize=24;" parent="t1N8OoI1Idy5QMUV6ws5-1" vertex="1">
          <mxGeometry x="1780" y="1990" width="860" height="600" as="geometry" />
        </mxCell>
        <mxCell id="t1N8OoI1Idy5QMUV6ws5-159" value="Page 1" style="strokeWidth=1;shadow=0;dashed=0;align=center;html=1;shape=mxgraph.mockup.containers.anchor;fontSize=17;fontColor=#666666;align=left;" parent="t1N8OoI1Idy5QMUV6ws5-158" vertex="1">
          <mxGeometry x="60" y="12" width="110" height="26" as="geometry" />
        </mxCell>
        <mxCell id="t1N8OoI1Idy5QMUV6ws5-160" value="https://localhost:8081/tasks/newtask" style="strokeWidth=1;shadow=0;dashed=0;align=center;html=1;shape=mxgraph.mockup.containers.anchor;rSize=0;fontSize=17;fontColor=#666666;align=left;" parent="t1N8OoI1Idy5QMUV6ws5-158" vertex="1">
          <mxGeometry x="130" y="60" width="250" height="26" as="geometry" />
        </mxCell>
        <mxCell id="Mqe3Lt3xieHkKMghgsf6-10" value="" style="rounded=1;whiteSpace=wrap;html=1;fillColor=#616161;fontSize=24;align=left;arcSize=3;" parent="t1N8OoI1Idy5QMUV6ws5-158" vertex="1">
          <mxGeometry y="110" width="860" height="140" as="geometry" />
        </mxCell>
        <mxCell id="Mqe3Lt3xieHkKMghgsf6-12" value="录制任务步骤，可使系统在用户测试过程中自动判断任务是否完成，并且有助于分析测试结果。&lt;br&gt;请先进入任务开始的页面，然后点击【开始录制】。" style="text;html=1;align=left;verticalAlign=top;whiteSpace=wrap;rounded=0;fontSize=18;labelBackgroundColor=none;fontColor=#FFFFFF;" parent="t1N8OoI1Idy5QMUV6ws5-158" vertex="1">
          <mxGeometry x="30" y="160" width="550" height="70" as="geometry" />
        </mxCell>
        <mxCell id="Mqe3Lt3xieHkKMghgsf6-13" value="录制任务步骤" style="text;html=1;strokeColor=none;fillColor=none;align=left;verticalAlign=middle;whiteSpace=wrap;rounded=0;labelBackgroundColor=none;fontSize=24;fontColor=#FFFFFF;" parent="t1N8OoI1Idy5QMUV6ws5-158" vertex="1">
          <mxGeometry x="30" y="125" width="240" height="20" as="geometry" />
        </mxCell>
        <mxCell id="hCKcJZPRaS308jAiIqUi-1" value="开始录制" style="strokeWidth=1;shadow=0;dashed=0;align=center;html=1;shape=mxgraph.mockup.buttons.button;strokeColor=#666666;fontColor=#ffffff;mainText=;buttonStyle=round;fontSize=17;fontStyle=1;fillColor=#008cff;whiteSpace=wrap;" parent="t1N8OoI1Idy5QMUV6ws5-158" vertex="1">
          <mxGeometry x="690" y="180" width="150" height="50" as="geometry" />
        </mxCell>
        <mxCell id="Mqe3Lt3xieHkKMghgsf6-0" value="" style="strokeWidth=1;shadow=0;dashed=0;align=center;html=1;shape=mxgraph.mockup.containers.browserWindow;rSize=0;strokeColor=#666666;strokeColor2=#008cff;strokeColor3=#c4c4c4;mainText=,;recursiveResize=0;fillColor=#FFFFFF;fontSize=24;" parent="t1N8OoI1Idy5QMUV6ws5-1" vertex="1">
          <mxGeometry x="2640" y="1990" width="860" height="600" as="geometry" />
        </mxCell>
        <mxCell id="Mqe3Lt3xieHkKMghgsf6-1" value="Page 1" style="strokeWidth=1;shadow=0;dashed=0;align=center;html=1;shape=mxgraph.mockup.containers.anchor;fontSize=17;fontColor=#666666;align=left;" parent="Mqe3Lt3xieHkKMghgsf6-0" vertex="1">
          <mxGeometry x="60" y="12" width="110" height="26" as="geometry" />
        </mxCell>
        <mxCell id="Mqe3Lt3xieHkKMghgsf6-2" value="https://localhost:8081/tasks/newtask" style="strokeWidth=1;shadow=0;dashed=0;align=center;html=1;shape=mxgraph.mockup.containers.anchor;rSize=0;fontSize=17;fontColor=#666666;align=left;" parent="Mqe3Lt3xieHkKMghgsf6-0" vertex="1">
          <mxGeometry x="130" y="60" width="250" height="26" as="geometry" />
        </mxCell>
        <mxCell id="hCKcJZPRaS308jAiIqUi-0" value="" style="rounded=1;whiteSpace=wrap;html=1;fillColor=#FF9999;fontSize=24;align=left;arcSize=3;" parent="Mqe3Lt3xieHkKMghgsf6-0" vertex="1">
          <mxGeometry y="110" width="860" height="80" as="geometry" />
        </mxCell>
        <mxCell id="hCKcJZPRaS308jAiIqUi-5" value="请在原型中模拟完成&amp;nbsp;&lt;u&gt;当前任务&lt;/u&gt;，完成后点击【结束录制】。&lt;br&gt;如有误操作，不必担心，后续可以清除它们" style="text;html=1;align=left;verticalAlign=middle;whiteSpace=wrap;rounded=0;fontSize=18;labelBackgroundColor=none;fontColor=#FFFFFF;" parent="Mqe3Lt3xieHkKMghgsf6-0" vertex="1">
          <mxGeometry x="50" y="130" width="610" height="40" as="geometry" />
        </mxCell>
        <mxCell id="hCKcJZPRaS308jAiIqUi-7" value="结束录制" style="strokeWidth=1;shadow=0;dashed=0;align=center;html=1;shape=mxgraph.mockup.buttons.button;strokeColor=#666666;fontColor=#ffffff;mainText=;buttonStyle=round;fontSize=17;fontStyle=1;fillColor=#008cff;whiteSpace=wrap;" parent="Mqe3Lt3xieHkKMghgsf6-0" vertex="1">
          <mxGeometry x="690" y="125" width="150" height="50" as="geometry" />
        </mxCell>
        <mxCell id="hCKcJZPRaS308jAiIqUi-9" value="" style="ellipse;whiteSpace=wrap;html=1;aspect=fixed;fontColor=#E6E6E6;fillColor=#FF3333;strokeColor=none;" parent="Mqe3Lt3xieHkKMghgsf6-0" vertex="1">
          <mxGeometry x="20" y="140" width="20" height="20" as="geometry" />
        </mxCell>
      </root>
    </mxGraphModel>
  </diagram>
  <diagram name="monitor.js" id="74e2e168-ea6b-b213-b513-2b3c1d86103e">
    <mxGraphModel dx="2431" dy="1174" grid="1" gridSize="10" guides="1" tooltips="1" connect="1" arrows="1" fold="1" page="0" pageScale="1" pageWidth="1100" pageHeight="850" background="#ffffff" math="0" shadow="0">
      <root>
        <mxCell id="0" />
        <mxCell id="1" parent="0" />
        <mxCell id="IkAavkuxD4Cls8WyLZq--48" value="载入" style="strokeWidth=1;html=1;shape=mxgraph.flowchart.start_1;whiteSpace=wrap;shadow=0;fontFamily=Verdana;fontSize=12;fontColor=#000000;align=center;strokeColor=#000000;fillColor=#ffffff;" parent="1" vertex="1">
          <mxGeometry x="-330" y="50" width="100" height="60" as="geometry" />
        </mxCell>
        <mxCell id="tfNFJDjR5HvvW7LmKLqy-3" style="edgeStyle=orthogonalEdgeStyle;orthogonalLoop=1;jettySize=auto;html=1;entryX=0.5;entryY=0;entryDx=0;entryDy=0;entryPerimeter=0;" parent="1" source="IkAavkuxD4Cls8WyLZq--52" target="oUuE15ehc0f96XT7V3lQ-1" edge="1">
          <mxGeometry relative="1" as="geometry" />
        </mxCell>
        <mxCell id="tfNFJDjR5HvvW7LmKLqy-4" value="是" style="text;html=1;align=center;verticalAlign=middle;resizable=0;points=[];;labelBackgroundColor=#ffffff;" parent="tfNFJDjR5HvvW7LmKLqy-3" vertex="1" connectable="0">
          <mxGeometry x="-0.9259" y="4" relative="1" as="geometry">
            <mxPoint x="-4" y="10" as="offset" />
          </mxGeometry>
        </mxCell>
        <mxCell id="tfNFJDjR5HvvW7LmKLqy-15" value="否" style="edgeStyle=orthogonalEdgeStyle;orthogonalLoop=1;jettySize=auto;html=1;exitX=1;exitY=0.5;exitDx=0;exitDy=0;fontSize=12;" parent="1" source="IkAavkuxD4Cls8WyLZq--52" target="IkAavkuxD4Cls8WyLZq--105" edge="1">
          <mxGeometry relative="1" as="geometry" />
        </mxCell>
        <mxCell id="IkAavkuxD4Cls8WyLZq--52" value="当前窗口&lt;br&gt;是顶层" style="rhombus;whiteSpace=wrap;html=1;rounded=0;shadow=0;strokeWidth=1;fontFamily=Verdana;" parent="1" vertex="1">
          <mxGeometry x="-320" y="170" width="80" height="80" as="geometry" />
        </mxCell>
        <mxCell id="tfNFJDjR5HvvW7LmKLqy-11" style="edgeStyle=orthogonalEdgeStyle;orthogonalLoop=1;jettySize=auto;html=1;exitX=1;exitY=0.5;exitDx=0;exitDy=0;entryX=0.5;entryY=0;entryDx=0;entryDy=0;fontSize=12;" parent="1" source="tfNFJDjR5HvvW7LmKLqy-1" target="tfNFJDjR5HvvW7LmKLqy-8" edge="1">
          <mxGeometry relative="1" as="geometry" />
        </mxCell>
        <mxCell id="tfNFJDjR5HvvW7LmKLqy-12" value="否" style="text;html=1;align=center;verticalAlign=middle;resizable=0;points=[];;labelBackgroundColor=#ffffff;fontSize=12;" parent="tfNFJDjR5HvvW7LmKLqy-11" vertex="1" connectable="0">
          <mxGeometry x="-0.6857" relative="1" as="geometry">
            <mxPoint as="offset" />
          </mxGeometry>
        </mxCell>
        <mxCell id="tfNFJDjR5HvvW7LmKLqy-1" value="父窗口=&lt;br&gt;顶窗口" style="rhombus;whiteSpace=wrap;html=1;rounded=0;shadow=0;strokeWidth=1;fontFamily=Verdana;" parent="1" vertex="1">
          <mxGeometry x="-10" y="170" width="80" height="80" as="geometry" />
        </mxCell>
        <mxCell id="IkAavkuxD4Cls8WyLZq--107" value="是" style="edgeStyle=orthogonalEdgeStyle;rounded=1;orthogonalLoop=1;jettySize=auto;html=1;fontFamily=Verdana;fontSize=12;exitX=0.5;exitY=1;exitDx=0;exitDy=0;entryX=0.5;entryY=0;entryDx=0;entryDy=0;" parent="1" source="tfNFJDjR5HvvW7LmKLqy-1" target="i-cFe7NFmSsvWpU71qvL-1" edge="1">
          <mxGeometry relative="1" as="geometry">
            <mxPoint x="100" y="365" as="sourcePoint" />
            <mxPoint x="-160" y="280" as="targetPoint" />
            <mxPoint as="offset" />
          </mxGeometry>
        </mxCell>
        <mxCell id="oUuE15ehc0f96XT7V3lQ-1" value="end" style="strokeWidth=2;html=1;shape=mxgraph.flowchart.start_1;whiteSpace=wrap;rounded=0;shadow=0;fontFamily=Verdana;" parent="1" vertex="1">
          <mxGeometry x="-330" y="550" width="100" height="60" as="geometry" />
        </mxCell>
        <mxCell id="jOhu98A1rtZhR6f6OVqs-4" style="edgeStyle=orthogonalEdgeStyle;rounded=1;orthogonalLoop=1;jettySize=auto;html=1;exitX=0.5;exitY=1;exitDx=0;exitDy=0;entryX=0.5;entryY=0;entryDx=0;entryDy=0;fontFamily=Verdana;fontSize=12;" parent="1" source="IkAavkuxD4Cls8WyLZq--48" target="IkAavkuxD4Cls8WyLZq--52" edge="1">
          <mxGeometry relative="1" as="geometry">
            <mxPoint x="-280" y="-130" as="sourcePoint" />
            <mxPoint x="-280" y="-90" as="targetPoint" />
          </mxGeometry>
        </mxCell>
        <mxCell id="i-cFe7NFmSsvWpU71qvL-2" style="edgeStyle=orthogonalEdgeStyle;orthogonalLoop=1;jettySize=auto;html=1;exitX=0;exitY=0.5;exitDx=0;exitDy=0;entryX=0.5;entryY=0;entryDx=0;entryDy=0;entryPerimeter=0;" parent="1" source="aY5smYac0QtWjK5o0z3U-1" target="oUuE15ehc0f96XT7V3lQ-1" edge="1">
          <mxGeometry relative="1" as="geometry" />
        </mxCell>
        <UserObject label="status:isReady&lt;br&gt;url:url" id="i-cFe7NFmSsvWpU71qvL-1">
          <mxCell style="shape=parallelogram;perimeter=parallelogramPerimeter;whiteSpace=wrap;html=1;rounded=0;shadow=0;strokeWidth=1;fontFamily=Verdana;" parent="1" vertex="1">
            <mxGeometry x="-30" y="300" width="120" height="60" as="geometry" />
          </mxCell>
        </UserObject>
        <mxCell id="tfNFJDjR5HvvW7LmKLqy-17" style="edgeStyle=orthogonalEdgeStyle;orthogonalLoop=1;jettySize=auto;html=1;entryX=0;entryY=0.5;entryDx=0;entryDy=0;fontSize=12;" parent="1" source="IkAavkuxD4Cls8WyLZq--105" target="tfNFJDjR5HvvW7LmKLqy-1" edge="1">
          <mxGeometry relative="1" as="geometry" />
        </mxCell>
        <mxCell id="TfIvbTsw4HgEyzSG8_d2-1" style="edgeStyle=orthogonalEdgeStyle;orthogonalLoop=1;jettySize=auto;html=1;exitX=0.5;exitY=0;exitDx=0;exitDy=0;entryX=0;entryY=0.5;entryDx=0;entryDy=0;entryPerimeter=0;fontSize=12;" parent="1" source="IkAavkuxD4Cls8WyLZq--105" target="mAyLBN4i2BPll1pfQPD6-7" edge="1">
          <mxGeometry relative="1" as="geometry" />
        </mxCell>
        <mxCell id="IkAavkuxD4Cls8WyLZq--105" value="监听窗口消息" style="rounded=0;whiteSpace=wrap;html=1;shadow=0;labelBackgroundColor=none;strokeWidth=1;fontFamily=Verdana;fontSize=12;align=center;" parent="1" vertex="1">
          <mxGeometry x="-170" y="180" width="100" height="60" as="geometry" />
        </mxCell>
        <UserObject label="status:init&lt;br&gt;url:url" id="tfNFJDjR5HvvW7LmKLqy-8">
          <mxCell style="shape=parallelogram;perimeter=parallelogramPerimeter;whiteSpace=wrap;html=1;rounded=0;shadow=0;strokeWidth=1;fontFamily=Verdana;" parent="1" vertex="1">
            <mxGeometry x="130" y="300" width="120" height="60" as="geometry" />
          </mxCell>
        </UserObject>
        <mxCell id="mAyLBN4i2BPll1pfQPD6-1" style="edgeStyle=orthogonalEdgeStyle;jumpStyle=arc;orthogonalLoop=1;jettySize=auto;html=1;exitX=0.5;exitY=1;exitDx=0;exitDy=0;fontFamily=Verdana;fontSize=12;entryX=1;entryY=0.5;entryDx=0;entryDy=0;entryPerimeter=0;" parent="1" source="mAyLBN4i2BPll1pfQPD6-5" target="mAyLBN4i2BPll1pfQPD6-8" edge="1">
          <mxGeometry relative="1" as="geometry">
            <mxPoint x="610" y="490" as="targetPoint" />
          </mxGeometry>
        </mxCell>
        <mxCell id="mAyLBN4i2BPll1pfQPD6-2" style="edgeStyle=orthogonalEdgeStyle;rounded=1;jumpStyle=arc;orthogonalLoop=1;jettySize=auto;html=1;fontFamily=Verdana;fontSize=12;exitX=0.5;exitY=1;exitDx=0;exitDy=0;exitPerimeter=0;" parent="1" source="mAyLBN4i2BPll1pfQPD6-7" target="mAyLBN4i2BPll1pfQPD6-4" edge="1">
          <mxGeometry relative="1" as="geometry">
            <mxPoint x="460" y="101" as="sourcePoint" />
            <mxPoint x="460" y="140" as="targetPoint" />
          </mxGeometry>
        </mxCell>
        <mxCell id="mAyLBN4i2BPll1pfQPD6-3" style="edgeStyle=orthogonalEdgeStyle;orthogonalLoop=1;jettySize=auto;html=1;exitX=0.5;exitY=1;exitDx=0;exitDy=0;entryX=0.5;entryY=0;entryDx=0;entryDy=0;" parent="1" source="mAyLBN4i2BPll1pfQPD6-4" target="mAyLBN4i2BPll1pfQPD6-11" edge="1">
          <mxGeometry relative="1" as="geometry" />
        </mxCell>
        <mxCell id="mAyLBN4i2BPll1pfQPD6-4" value="判断消息属性" style="rounded=0;whiteSpace=wrap;html=1;shadow=0;labelBackgroundColor=none;strokeWidth=1;fontFamily=Verdana;fontSize=12;align=center;" parent="1" vertex="1">
          <mxGeometry x="410" y="160" width="100" height="60" as="geometry" />
        </mxCell>
        <mxCell id="mAyLBN4i2BPll1pfQPD6-5" value="停止跟踪" style="rounded=0;whiteSpace=wrap;html=1;shadow=0;labelBackgroundColor=none;strokeWidth=1;fontFamily=Verdana;fontSize=12;align=center;" parent="1" vertex="1">
          <mxGeometry x="560" y="385" width="100" height="60" as="geometry" />
        </mxCell>
        <mxCell id="mAyLBN4i2BPll1pfQPD6-6" style="edgeStyle=orthogonalEdgeStyle;jumpStyle=arc;orthogonalLoop=1;jettySize=auto;html=1;exitX=0.5;exitY=1;exitDx=0;exitDy=0;fontFamily=Verdana;fontSize=12;" parent="1" source="mAyLBN4i2BPll1pfQPD6-13" target="mAyLBN4i2BPll1pfQPD6-5" edge="1">
          <mxGeometry relative="1" as="geometry">
            <mxPoint x="710" y="540" as="sourcePoint" />
            <mxPoint x="710" y="670" as="targetPoint" />
          </mxGeometry>
        </mxCell>
        <mxCell id="mAyLBN4i2BPll1pfQPD6-7" value="&lt;span style=&quot;white-space: normal&quot;&gt;收到窗口消息&lt;/span&gt;" style="strokeWidth=2;html=1;shape=mxgraph.flowchart.start_1;whiteSpace=wrap;rounded=0;shadow=0;fontFamily=Verdana;" parent="1" vertex="1">
          <mxGeometry x="410" y="50" width="100" height="60" as="geometry" />
        </mxCell>
        <mxCell id="mAyLBN4i2BPll1pfQPD6-8" value="" style="strokeWidth=2;html=1;shape=mxgraph.flowchart.start_1;whiteSpace=wrap;rounded=0;shadow=0;fontFamily=Verdana;" parent="1" vertex="1">
          <mxGeometry x="410" y="520" width="100" height="60" as="geometry" />
        </mxCell>
        <mxCell id="mAyLBN4i2BPll1pfQPD6-10" value="" style="edgeStyle=orthogonalEdgeStyle;jumpStyle=arc;orthogonalLoop=1;jettySize=auto;html=1;fontFamily=Verdana;fontSize=12;" parent="1" source="mAyLBN4i2BPll1pfQPD6-11" target="mAyLBN4i2BPll1pfQPD6-13" edge="1">
          <mxGeometry relative="1" as="geometry" />
        </mxCell>
        <mxCell id="mAyLBN4i2BPll1pfQPD6-11" value="stepRec_&lt;br&gt;start" style="rhombus;whiteSpace=wrap;html=1;rounded=0;shadow=0;strokeWidth=1;fontFamily=Verdana;" parent="1" vertex="1">
          <mxGeometry x="420" y="265" width="80" height="80" as="geometry" />
        </mxCell>
        <mxCell id="mAyLBN4i2BPll1pfQPD6-12" value="" style="edgeStyle=orthogonalEdgeStyle;rounded=0;orthogonalLoop=1;jettySize=auto;html=1;" parent="1" source="mAyLBN4i2BPll1pfQPD6-13" target="mAyLBN4i2BPll1pfQPD6-15" edge="1">
          <mxGeometry relative="1" as="geometry" />
        </mxCell>
        <mxCell id="mAyLBN4i2BPll1pfQPD6-13" value="stepRec_&lt;br&gt;over" style="rhombus;whiteSpace=wrap;html=1;rounded=0;shadow=0;strokeWidth=1;fontFamily=Verdana;" parent="1" vertex="1">
          <mxGeometry x="570" y="265" width="80" height="80" as="geometry" />
        </mxCell>
        <mxCell id="mAyLBN4i2BPll1pfQPD6-14" style="edgeStyle=orthogonalEdgeStyle;rounded=0;orthogonalLoop=1;jettySize=auto;html=1;exitX=0.5;exitY=1;exitDx=0;exitDy=0;entryX=0.5;entryY=0;entryDx=0;entryDy=0;" parent="1" source="mAyLBN4i2BPll1pfQPD6-15" target="mAyLBN4i2BPll1pfQPD6-19" edge="1">
          <mxGeometry relative="1" as="geometry" />
        </mxCell>
        <mxCell id="mAyLBN4i2BPll1pfQPD6-15" value="render" style="rhombus;whiteSpace=wrap;html=1;rounded=0;shadow=0;strokeWidth=1;fontFamily=Verdana;" parent="1" vertex="1">
          <mxGeometry x="710" y="265" width="80" height="80" as="geometry" />
        </mxCell>
        <mxCell id="mAyLBN4i2BPll1pfQPD6-16" style="edgeStyle=orthogonalEdgeStyle;orthogonalLoop=1;jettySize=auto;html=1;exitX=0.5;exitY=1;exitDx=0;exitDy=0;entryX=0.5;entryY=0;entryDx=0;entryDy=0;entryPerimeter=0;" parent="1" source="L_6qBc0u-su7Y7T6YNRn-5" target="mAyLBN4i2BPll1pfQPD6-8" edge="1">
          <mxGeometry relative="1" as="geometry">
            <mxPoint x="460" y="540" as="sourcePoint" />
          </mxGeometry>
        </mxCell>
        <mxCell id="mAyLBN4i2BPll1pfQPD6-18" style="edgeStyle=orthogonalEdgeStyle;rounded=1;orthogonalLoop=1;jettySize=auto;html=1;exitX=0.5;exitY=1;exitDx=0;exitDy=0;entryX=1;entryY=0.5;entryDx=0;entryDy=0;entryPerimeter=0;" parent="1" source="mAyLBN4i2BPll1pfQPD6-19" target="mAyLBN4i2BPll1pfQPD6-8" edge="1">
          <mxGeometry relative="1" as="geometry" />
        </mxCell>
        <mxCell id="S8bL8zqugUcKj37KgqAr-3" style="edgeStyle=orthogonalEdgeStyle;orthogonalLoop=1;jettySize=auto;html=1;exitX=1;exitY=0.5;exitDx=0;exitDy=0;entryX=0;entryY=0.5;entryDx=0;entryDy=0;entryPerimeter=0;fontSize=12;" parent="1" source="mAyLBN4i2BPll1pfQPD6-19" target="S8bL8zqugUcKj37KgqAr-1" edge="1">
          <mxGeometry relative="1" as="geometry" />
        </mxCell>
        <mxCell id="mAyLBN4i2BPll1pfQPD6-19" value="渲染步骤标记" style="shape=process;whiteSpace=wrap;html=1;backgroundOutline=1;rounded=0;shadow=0;strokeWidth=1;fontFamily=Verdana;" parent="1" vertex="1">
          <mxGeometry x="700" y="385" width="100" height="60" as="geometry" />
        </mxCell>
        <mxCell id="S8bL8zqugUcKj37KgqAr-8" style="edgeStyle=orthogonalEdgeStyle;orthogonalLoop=1;jettySize=auto;html=1;exitX=0.5;exitY=1;exitDx=0;exitDy=0;exitPerimeter=0;entryX=0.5;entryY=0;entryDx=0;entryDy=0;fontSize=12;" parent="1" source="S8bL8zqugUcKj37KgqAr-1" target="S8bL8zqugUcKj37KgqAr-5" edge="1">
          <mxGeometry relative="1" as="geometry" />
        </mxCell>
        <mxCell id="S8bL8zqugUcKj37KgqAr-1" value="渲染步骤标记" style="strokeWidth=2;html=1;shape=mxgraph.flowchart.start_1;whiteSpace=wrap;rounded=0;shadow=0;fontFamily=Verdana;" parent="1" vertex="1">
          <mxGeometry x="990" y="50" width="100" height="60" as="geometry" />
        </mxCell>
        <mxCell id="S8bL8zqugUcKj37KgqAr-11" value="" style="edgeStyle=orthogonalEdgeStyle;orthogonalLoop=1;jettySize=auto;html=1;fontSize=12;" parent="1" source="AYP0DJg8AHkpccC8nORd-1" target="S8bL8zqugUcKj37KgqAr-10" edge="1">
          <mxGeometry relative="1" as="geometry" />
        </mxCell>
        <mxCell id="S8bL8zqugUcKj37KgqAr-5" value="筛选当前页面的&lt;br&gt;步骤" style="rounded=0;whiteSpace=wrap;html=1;shadow=0;labelBackgroundColor=none;strokeWidth=1;fontFamily=Verdana;fontSize=12;align=center;" parent="1" vertex="1">
          <mxGeometry x="990" y="150" width="100" height="60" as="geometry" />
        </mxCell>
        <mxCell id="S8bL8zqugUcKj37KgqAr-12" style="edgeStyle=orthogonalEdgeStyle;orthogonalLoop=1;jettySize=auto;html=1;fontSize=12;exitX=1;exitY=0.5;exitDx=0;exitDy=0;entryX=0.5;entryY=0;entryDx=0;entryDy=0;" parent="1" source="S8bL8zqugUcKj37KgqAr-10" target="S8bL8zqugUcKj37KgqAr-10" edge="1">
          <mxGeometry relative="1" as="geometry">
            <mxPoint x="1090" y="365" as="targetPoint" />
            <Array as="points">
              <mxPoint x="1110" y="395" />
              <mxPoint x="1110" y="345" />
              <mxPoint x="1040" y="345" />
            </Array>
          </mxGeometry>
        </mxCell>
        <mxCell id="AYP0DJg8AHkpccC8nORd-5" style="edgeStyle=orthogonalEdgeStyle;orthogonalLoop=1;jettySize=auto;html=1;exitX=0.5;exitY=1;exitDx=0;exitDy=0;entryX=0.5;entryY=0;entryDx=0;entryDy=0;entryPerimeter=0;fontSize=12;" parent="1" source="S8bL8zqugUcKj37KgqAr-10" target="AYP0DJg8AHkpccC8nORd-4" edge="1">
          <mxGeometry relative="1" as="geometry" />
        </mxCell>
        <mxCell id="S8bL8zqugUcKj37KgqAr-10" value="对步骤元素包裹一层标记" style="rounded=0;whiteSpace=wrap;html=1;shadow=0;labelBackgroundColor=none;strokeWidth=1;fontFamily=Verdana;fontSize=12;align=center;" parent="1" vertex="1">
          <mxGeometry x="990" y="365" width="100" height="60" as="geometry" />
        </mxCell>
        <mxCell id="AYP0DJg8AHkpccC8nORd-1" value="删除所有标记元素" style="rounded=0;whiteSpace=wrap;html=1;shadow=0;labelBackgroundColor=none;strokeWidth=1;fontFamily=Verdana;fontSize=12;align=center;" parent="1" vertex="1">
          <mxGeometry x="990" y="250" width="100" height="60" as="geometry" />
        </mxCell>
        <mxCell id="AYP0DJg8AHkpccC8nORd-2" value="" style="edgeStyle=orthogonalEdgeStyle;orthogonalLoop=1;jettySize=auto;html=1;fontSize=12;" parent="1" source="S8bL8zqugUcKj37KgqAr-5" target="AYP0DJg8AHkpccC8nORd-1" edge="1">
          <mxGeometry relative="1" as="geometry">
            <mxPoint x="1040" y="210" as="sourcePoint" />
            <mxPoint x="1040" y="380" as="targetPoint" />
          </mxGeometry>
        </mxCell>
        <mxCell id="AYP0DJg8AHkpccC8nORd-4" value="" style="strokeWidth=2;html=1;shape=mxgraph.flowchart.start_1;whiteSpace=wrap;rounded=0;shadow=0;fontFamily=Verdana;" parent="1" vertex="1">
          <mxGeometry x="990" y="460" width="100" height="60" as="geometry" />
        </mxCell>
        <mxCell id="L_6qBc0u-su7Y7T6YNRn-7" style="edgeStyle=orthogonalEdgeStyle;orthogonalLoop=1;jettySize=auto;html=1;exitX=0.5;exitY=1;exitDx=0;exitDy=0;exitPerimeter=0;entryX=0.5;entryY=0;entryDx=0;entryDy=0;fontSize=12;" parent="1" source="L_6qBc0u-su7Y7T6YNRn-1" target="L_6qBc0u-su7Y7T6YNRn-2" edge="1">
          <mxGeometry relative="1" as="geometry" />
        </mxCell>
        <mxCell id="L_6qBc0u-su7Y7T6YNRn-1" value="跟踪程序" style="strokeWidth=2;html=1;shape=mxgraph.flowchart.start_1;whiteSpace=wrap;rounded=0;shadow=0;fontFamily=Verdana;" parent="1" vertex="1">
          <mxGeometry x="1250" y="50" width="100" height="60" as="geometry" />
        </mxCell>
        <mxCell id="L_6qBc0u-su7Y7T6YNRn-10" style="edgeStyle=orthogonalEdgeStyle;orthogonalLoop=1;jettySize=auto;html=1;exitX=0.5;exitY=1;exitDx=0;exitDy=0;entryX=0.5;entryY=0;entryDx=0;entryDy=0;fontSize=12;" parent="1" source="L_6qBc0u-su7Y7T6YNRn-2" target="L_6qBc0u-su7Y7T6YNRn-8" edge="1">
          <mxGeometry relative="1" as="geometry" />
        </mxCell>
        <mxCell id="L_6qBc0u-su7Y7T6YNRn-2" value="停止监听事件" style="rounded=0;whiteSpace=wrap;html=1;shadow=0;labelBackgroundColor=none;strokeWidth=1;fontFamily=Verdana;fontSize=12;align=center;" parent="1" vertex="1">
          <mxGeometry x="1250" y="150" width="100" height="60" as="geometry" />
        </mxCell>
        <mxCell id="aY5smYac0QtWjK5o0z3U-8" style="edgeStyle=orthogonalEdgeStyle;orthogonalLoop=1;jettySize=auto;html=1;exitX=0.5;exitY=1;exitDx=0;exitDy=0;entryX=0.5;entryY=0;entryDx=0;entryDy=0;entryPerimeter=0;fontSize=12;" parent="1" source="L_6qBc0u-su7Y7T6YNRn-3" target="aY5smYac0QtWjK5o0z3U-7" edge="1">
          <mxGeometry relative="1" as="geometry" />
        </mxCell>
        <mxCell id="L_6qBc0u-su7Y7T6YNRn-3" value="开始监听事件" style="rounded=0;whiteSpace=wrap;html=1;shadow=0;labelBackgroundColor=none;strokeWidth=1;fontFamily=Verdana;fontSize=12;align=center;" parent="1" vertex="1">
          <mxGeometry x="1250" y="540" width="100" height="60" as="geometry" />
        </mxCell>
        <mxCell id="L_6qBc0u-su7Y7T6YNRn-5" value="启用跟踪" style="rounded=0;whiteSpace=wrap;html=1;shadow=0;labelBackgroundColor=none;strokeWidth=1;fontFamily=Verdana;fontSize=12;align=center;" parent="1" vertex="1">
          <mxGeometry x="410" y="385" width="100" height="60" as="geometry" />
        </mxCell>
        <mxCell id="L_6qBc0u-su7Y7T6YNRn-6" style="edgeStyle=orthogonalEdgeStyle;rounded=1;jumpStyle=arc;orthogonalLoop=1;jettySize=auto;html=1;exitX=0.5;exitY=1;exitDx=0;exitDy=0;fontFamily=Verdana;fontSize=12;entryX=0.5;entryY=0;entryDx=0;entryDy=0;" parent="1" source="mAyLBN4i2BPll1pfQPD6-11" target="L_6qBc0u-su7Y7T6YNRn-5" edge="1">
          <mxGeometry relative="1" as="geometry">
            <mxPoint x="460" y="520" as="targetPoint" />
            <mxPoint x="460" y="345" as="sourcePoint" />
          </mxGeometry>
        </mxCell>
        <mxCell id="L_6qBc0u-su7Y7T6YNRn-11" style="edgeStyle=orthogonalEdgeStyle;orthogonalLoop=1;jettySize=auto;html=1;exitX=0.5;exitY=1;exitDx=0;exitDy=0;entryX=0.5;entryY=0;entryDx=0;entryDy=0;fontSize=12;" parent="1" source="L_6qBc0u-su7Y7T6YNRn-8" target="L_6qBc0u-su7Y7T6YNRn-9" edge="1">
          <mxGeometry relative="1" as="geometry" />
        </mxCell>
        <mxCell id="L_6qBc0u-su7Y7T6YNRn-8" value="处理事件信息" style="rounded=0;whiteSpace=wrap;html=1;shadow=0;labelBackgroundColor=none;strokeWidth=1;fontFamily=Verdana;fontSize=12;align=center;" parent="1" vertex="1">
          <mxGeometry x="1250" y="250" width="100" height="60" as="geometry" />
        </mxCell>
        <mxCell id="L_6qBc0u-su7Y7T6YNRn-12" style="edgeStyle=orthogonalEdgeStyle;orthogonalLoop=1;jettySize=auto;html=1;exitX=0.5;exitY=1;exitDx=0;exitDy=0;entryX=0.5;entryY=0;entryDx=0;entryDy=0;fontSize=12;" parent="1" source="L_6qBc0u-su7Y7T6YNRn-13" target="L_6qBc0u-su7Y7T6YNRn-3" edge="1">
          <mxGeometry relative="1" as="geometry" />
        </mxCell>
        <mxCell id="L_6qBc0u-su7Y7T6YNRn-9" value="status:rec&lt;br&gt;log:log" style="shape=parallelogram;perimeter=parallelogramPerimeter;whiteSpace=wrap;html=1;shadow=0;fontFamily=Verdana;fontSize=12;fontColor=#000000;align=center;strokeColor=#000000;strokeWidth=1;fillColor=#ffffff;" parent="1" vertex="1">
          <mxGeometry x="1250" y="350" width="100" height="60" as="geometry" />
        </mxCell>
        <mxCell id="L_6qBc0u-su7Y7T6YNRn-13" value="发送给父窗口" style="rounded=0;whiteSpace=wrap;html=1;shadow=0;labelBackgroundColor=none;strokeWidth=1;fontFamily=Verdana;fontSize=12;align=center;" parent="1" vertex="1">
          <mxGeometry x="1250" y="445" width="100" height="60" as="geometry" />
        </mxCell>
        <mxCell id="L_6qBc0u-su7Y7T6YNRn-14" style="edgeStyle=orthogonalEdgeStyle;orthogonalLoop=1;jettySize=auto;html=1;exitX=0.5;exitY=1;exitDx=0;exitDy=0;entryX=0.5;entryY=0;entryDx=0;entryDy=0;fontSize=12;" parent="1" source="L_6qBc0u-su7Y7T6YNRn-9" target="L_6qBc0u-su7Y7T6YNRn-13" edge="1">
          <mxGeometry relative="1" as="geometry">
            <mxPoint x="1300" y="410" as="sourcePoint" />
            <mxPoint x="1300" y="510" as="targetPoint" />
          </mxGeometry>
        </mxCell>
        <mxCell id="aY5smYac0QtWjK5o0z3U-1" value="发送给父窗口" style="rounded=0;whiteSpace=wrap;html=1;shadow=0;labelBackgroundColor=none;strokeWidth=1;fontFamily=Verdana;fontSize=12;align=center;" parent="1" vertex="1">
          <mxGeometry x="-20" y="460" width="100" height="60" as="geometry" />
        </mxCell>
        <mxCell id="aY5smYac0QtWjK5o0z3U-2" style="edgeStyle=orthogonalEdgeStyle;orthogonalLoop=1;jettySize=auto;html=1;exitX=0.5;exitY=1;exitDx=0;exitDy=0;entryX=0.5;entryY=0;entryDx=0;entryDy=0;entryPerimeter=0;" parent="1" source="i-cFe7NFmSsvWpU71qvL-1" target="aY5smYac0QtWjK5o0z3U-1" edge="1">
          <mxGeometry relative="1" as="geometry">
            <mxPoint x="30" y="360" as="sourcePoint" />
            <mxPoint x="-280" y="550" as="targetPoint" />
          </mxGeometry>
        </mxCell>
        <mxCell id="aY5smYac0QtWjK5o0z3U-4" style="edgeStyle=orthogonalEdgeStyle;orthogonalLoop=1;jettySize=auto;html=1;exitX=0.5;exitY=1;exitDx=0;exitDy=0;fontSize=12;" parent="1" source="tfNFJDjR5HvvW7LmKLqy-8" target="aY5smYac0QtWjK5o0z3U-1" edge="1">
          <mxGeometry relative="1" as="geometry">
            <mxPoint x="190" y="360" as="sourcePoint" />
            <mxPoint x="190" y="400" as="targetPoint" />
          </mxGeometry>
        </mxCell>
        <mxCell id="aY5smYac0QtWjK5o0z3U-7" value="" style="strokeWidth=2;html=1;shape=mxgraph.flowchart.start_1;whiteSpace=wrap;rounded=0;shadow=0;fontFamily=Verdana;" parent="1" vertex="1">
          <mxGeometry x="1250" y="640" width="100" height="60" as="geometry" />
        </mxCell>
      </root>
    </mxGraphModel>
  </diagram>
  <diagram id="KPXuNAHNgFY1EAc-VBBK" name="newTask.js">
    <mxGraphModel dx="622" dy="822" grid="1" gridSize="10" guides="1" tooltips="1" connect="1" arrows="1" fold="1" page="0" pageScale="1" pageWidth="827" pageHeight="1169" math="0" shadow="0">
      <root>
        <mxCell id="0t98YCe5Zw7eO1GMQgLX-0" />
        <mxCell id="0t98YCe5Zw7eO1GMQgLX-1" parent="0t98YCe5Zw7eO1GMQgLX-0" />
        <mxCell id="JbaUJTYNhKLOm0TIMa1M-0" value="载入" style="strokeWidth=1;html=1;shape=mxgraph.flowchart.start_1;whiteSpace=wrap;shadow=0;fontFamily=Verdana;fontSize=12;fontColor=#000000;align=center;strokeColor=#000000;fillColor=#ffffff;" parent="0t98YCe5Zw7eO1GMQgLX-1" vertex="1">
          <mxGeometry x="920" y="40" width="100" height="60" as="geometry" />
        </mxCell>
        <mxCell id="JbaUJTYNhKLOm0TIMa1M-1" style="edgeStyle=orthogonalEdgeStyle;rounded=1;orthogonalLoop=1;jettySize=auto;html=1;entryX=0.5;entryY=0;entryDx=0;entryDy=0;fontFamily=Verdana;fontSize=12;exitX=0.5;exitY=1;exitDx=0;exitDy=0;" parent="0t98YCe5Zw7eO1GMQgLX-1" source="JbaUJTYNhKLOm0TIMa1M-0" target="JbaUJTYNhKLOm0TIMa1M-3" edge="1">
          <mxGeometry relative="1" as="geometry" />
        </mxCell>
        <mxCell id="JbaUJTYNhKLOm0TIMa1M-2" style="edgeStyle=orthogonalEdgeStyle;rounded=1;orthogonalLoop=1;jettySize=auto;html=1;exitX=0.5;exitY=1;exitDx=0;exitDy=0;entryX=0.5;entryY=0;entryDx=0;entryDy=0;fontFamily=Verdana;fontSize=12;" parent="0t98YCe5Zw7eO1GMQgLX-1" source="JbaUJTYNhKLOm0TIMa1M-3" target="JbaUJTYNhKLOm0TIMa1M-5" edge="1">
          <mxGeometry relative="1" as="geometry" />
        </mxCell>
        <mxCell id="SOkIeDreqhQxKopBjUJ3-29" style="edgeStyle=orthogonalEdgeStyle;orthogonalLoop=1;jettySize=auto;html=1;exitX=1;exitY=0.5;exitDx=0;exitDy=0;fontSize=12;" parent="0t98YCe5Zw7eO1GMQgLX-1" source="JbaUJTYNhKLOm0TIMa1M-3" target="SOkIeDreqhQxKopBjUJ3-28" edge="1">
          <mxGeometry relative="1" as="geometry" />
        </mxCell>
        <UserObject label="监听窗口消息" id="JbaUJTYNhKLOm0TIMa1M-3">
          <mxCell style="rounded=0;whiteSpace=wrap;html=1;shadow=0;labelBackgroundColor=none;strokeWidth=1;fontFamily=Verdana;fontSize=12;align=center;" parent="0t98YCe5Zw7eO1GMQgLX-1" vertex="1">
            <mxGeometry x="920" y="135" width="100" height="60" as="geometry" />
          </mxCell>
        </UserObject>
        <mxCell id="JbaUJTYNhKLOm0TIMa1M-4" style="edgeStyle=orthogonalEdgeStyle;rounded=1;jumpStyle=arc;orthogonalLoop=1;jettySize=auto;html=1;exitX=0.5;exitY=1;exitDx=0;exitDy=0;entryX=0.5;entryY=0;entryDx=0;entryDy=0;fontFamily=Verdana;fontSize=12;" parent="0t98YCe5Zw7eO1GMQgLX-1" source="JbaUJTYNhKLOm0TIMa1M-5" target="JbaUJTYNhKLOm0TIMa1M-6" edge="1">
          <mxGeometry relative="1" as="geometry" />
        </mxCell>
        <mxCell id="JbaUJTYNhKLOm0TIMa1M-5" value="用户输入&lt;br&gt;原型链接" style="rounded=0;whiteSpace=wrap;html=1;shadow=0;labelBackgroundColor=none;strokeWidth=1;fontFamily=Verdana;fontSize=12;align=center;" parent="0t98YCe5Zw7eO1GMQgLX-1" vertex="1">
          <mxGeometry x="920" y="240" width="100" height="60" as="geometry" />
        </mxCell>
        <mxCell id="0JMGM_EERzEWuOkO8nVu-1" style="edgeStyle=orthogonalEdgeStyle;jumpStyle=arc;orthogonalLoop=1;jettySize=auto;html=1;entryX=0.5;entryY=0;entryDx=0;entryDy=0;entryPerimeter=0;endArrow=classic;endFill=1;fontFamily=Verdana;fontSize=12;" parent="0t98YCe5Zw7eO1GMQgLX-1" source="JbaUJTYNhKLOm0TIMa1M-6" target="0JMGM_EERzEWuOkO8nVu-0" edge="1">
          <mxGeometry relative="1" as="geometry" />
        </mxCell>
        <UserObject label="&lt;span style=&quot;white-space: nowrap&quot;&gt;在框架中&lt;br&gt;打开输入的url&lt;/span&gt;" link="data:page/id,74e2e168-ea6b-b213-b513-2b3c1d86103e" id="JbaUJTYNhKLOm0TIMa1M-6">
          <mxCell style="rounded=0;whiteSpace=wrap;html=1;shadow=0;labelBackgroundColor=none;strokeWidth=1;fontFamily=Verdana;fontSize=12;align=center;" parent="0t98YCe5Zw7eO1GMQgLX-1" vertex="1">
            <mxGeometry x="920" y="340" width="100" height="60" as="geometry" />
          </mxCell>
        </UserObject>
        <mxCell id="0JMGM_EERzEWuOkO8nVu-0" value="end" style="strokeWidth=2;html=1;shape=mxgraph.flowchart.start_1;whiteSpace=wrap;rounded=0;shadow=0;fontFamily=Verdana;" parent="0t98YCe5Zw7eO1GMQgLX-1" vertex="1">
          <mxGeometry x="920" y="445" width="100" height="60" as="geometry" />
        </mxCell>
        <mxCell id="SOkIeDreqhQxKopBjUJ3-0" value="显示开始按钮" style="rounded=0;whiteSpace=wrap;html=1;shadow=0;labelBackgroundColor=none;strokeWidth=1;fontFamily=Verdana;fontSize=12;align=center;" parent="0t98YCe5Zw7eO1GMQgLX-1" vertex="1">
          <mxGeometry x="1446.8600000000001" y="465" width="100" height="60" as="geometry" />
        </mxCell>
        <mxCell id="SOkIeDreqhQxKopBjUJ3-1" value="" style="edgeStyle=orthogonalEdgeStyle;rounded=1;orthogonalLoop=1;jettySize=auto;html=1;entryX=0.5;entryY=0;entryDx=0;entryDy=0;fontFamily=Verdana;fontSize=12;exitX=0.5;exitY=1;exitDx=0;exitDy=0;" parent="0t98YCe5Zw7eO1GMQgLX-1" source="SOkIeDreqhQxKopBjUJ3-8" target="SOkIeDreqhQxKopBjUJ3-0" edge="1">
          <mxGeometry relative="1" as="geometry">
            <mxPoint x="1496.7200000000003" y="415" as="sourcePoint" />
            <mxPoint x="1196.8600000000001" y="425" as="targetPoint" />
          </mxGeometry>
        </mxCell>
        <mxCell id="SOkIeDreqhQxKopBjUJ3-2" style="edgeStyle=orthogonalEdgeStyle;rounded=1;orthogonalLoop=1;jettySize=auto;html=1;entryX=0.5;entryY=0;entryDx=0;entryDy=0;fontFamily=Verdana;fontSize=12;exitX=0.5;exitY=1;exitDx=0;exitDy=0;" parent="0t98YCe5Zw7eO1GMQgLX-1" source="SOkIeDreqhQxKopBjUJ3-22" target="SOkIeDreqhQxKopBjUJ3-12" edge="1">
          <mxGeometry relative="1" as="geometry">
            <mxPoint x="456.86" y="775" as="sourcePoint" />
          </mxGeometry>
        </mxCell>
        <mxCell id="SOkIeDreqhQxKopBjUJ3-3" style="edgeStyle=orthogonalEdgeStyle;orthogonalLoop=1;jettySize=auto;html=1;exitX=0.5;exitY=1;exitDx=0;exitDy=0;entryX=0.5;entryY=0;entryDx=0;entryDy=0;fontSize=12;" parent="0t98YCe5Zw7eO1GMQgLX-1" source="SOkIeDreqhQxKopBjUJ3-4" target="SOkIeDreqhQxKopBjUJ3-22" edge="1">
          <mxGeometry relative="1" as="geometry" />
        </mxCell>
        <mxCell id="SOkIeDreqhQxKopBjUJ3-4" value="用户点击&lt;br&gt;开始按钮" style="rounded=1;whiteSpace=wrap;html=1;shadow=0;labelBackgroundColor=none;strokeWidth=1;fontFamily=Verdana;fontSize=12;align=center;" parent="0t98YCe5Zw7eO1GMQgLX-1" vertex="1">
          <mxGeometry x="1446.8600000000001" y="585" width="100" height="60" as="geometry" />
        </mxCell>
        <mxCell id="SOkIeDreqhQxKopBjUJ3-5" style="edgeStyle=orthogonalEdgeStyle;rounded=1;orthogonalLoop=1;jettySize=auto;html=1;fontFamily=Verdana;fontSize=12;dashed=1;" parent="0t98YCe5Zw7eO1GMQgLX-1" source="SOkIeDreqhQxKopBjUJ3-0" target="SOkIeDreqhQxKopBjUJ3-4" edge="1">
          <mxGeometry relative="1" as="geometry" />
        </mxCell>
        <mxCell id="SOkIeDreqhQxKopBjUJ3-6" value="" style="edgeStyle=orthogonalEdgeStyle;orthogonalLoop=1;jettySize=auto;html=1;fontSize=12;exitX=0.5;exitY=1;exitDx=0;exitDy=0;entryX=0.5;entryY=0;entryDx=0;entryDy=0;" parent="0t98YCe5Zw7eO1GMQgLX-1" source="SOkIeDreqhQxKopBjUJ3-17" target="SOkIeDreqhQxKopBjUJ3-10" edge="1">
          <mxGeometry relative="1" as="geometry">
            <mxPoint x="1340" y="405" as="sourcePoint" />
          </mxGeometry>
        </mxCell>
        <mxCell id="SOkIeDreqhQxKopBjUJ3-7" style="edgeStyle=orthogonalEdgeStyle;orthogonalLoop=1;jettySize=auto;html=1;entryX=0.5;entryY=0;entryDx=0;entryDy=0;fontSize=12;exitX=0.5;exitY=1;exitDx=0;exitDy=0;" parent="0t98YCe5Zw7eO1GMQgLX-1" source="SOkIeDreqhQxKopBjUJ3-10" target="SOkIeDreqhQxKopBjUJ3-16" edge="1">
          <mxGeometry relative="1" as="geometry">
            <mxPoint x="1046.8600000000001" y="435" as="sourcePoint" />
          </mxGeometry>
        </mxCell>
        <mxCell id="huAIh0ylmVy4OjZCI8KJ-1" value="" style="edgeStyle=orthogonalEdgeStyle;orthogonalLoop=1;jettySize=auto;html=1;fontSize=12;" parent="0t98YCe5Zw7eO1GMQgLX-1" source="SOkIeDreqhQxKopBjUJ3-8" target="huAIh0ylmVy4OjZCI8KJ-0" edge="1">
          <mxGeometry relative="1" as="geometry" />
        </mxCell>
        <mxCell id="SOkIeDreqhQxKopBjUJ3-8" value="isReady" style="rhombus;whiteSpace=wrap;html=1;rounded=0;shadow=0;strokeWidth=1;fontFamily=Verdana;" parent="0t98YCe5Zw7eO1GMQgLX-1" vertex="1">
          <mxGeometry x="1456.8600000000001" y="345" width="80" height="80" as="geometry" />
        </mxCell>
        <mxCell id="huAIh0ylmVy4OjZCI8KJ-0" value="rec" style="rhombus;whiteSpace=wrap;html=1;rounded=0;shadow=0;strokeWidth=1;fontFamily=Verdana;" parent="0t98YCe5Zw7eO1GMQgLX-1" vertex="1">
          <mxGeometry x="1870" y="345" width="80" height="80" as="geometry" />
        </mxCell>
        <mxCell id="SOkIeDreqhQxKopBjUJ3-9" style="edgeStyle=orthogonalEdgeStyle;orthogonalLoop=1;jettySize=auto;html=1;exitX=1;exitY=0.5;exitDx=0;exitDy=0;entryX=0;entryY=0.5;entryDx=0;entryDy=0;fontSize=12;" parent="0t98YCe5Zw7eO1GMQgLX-1" source="SOkIeDreqhQxKopBjUJ3-10" target="SOkIeDreqhQxKopBjUJ3-8" edge="1">
          <mxGeometry relative="1" as="geometry" />
        </mxCell>
        <mxCell id="SOkIeDreqhQxKopBjUJ3-10" value="init" style="rhombus;whiteSpace=wrap;html=1;rounded=0;shadow=0;strokeWidth=1;fontFamily=Verdana;" parent="0t98YCe5Zw7eO1GMQgLX-1" vertex="1">
          <mxGeometry x="1300" y="345" width="80" height="80" as="geometry" />
        </mxCell>
        <mxCell id="SOkIeDreqhQxKopBjUJ3-11" style="edgeStyle=orthogonalEdgeStyle;rounded=1;orthogonalLoop=1;jettySize=auto;html=1;fontFamily=Verdana;fontSize=12;dashed=1;" parent="0t98YCe5Zw7eO1GMQgLX-1" source="SOkIeDreqhQxKopBjUJ3-12" target="SOkIeDreqhQxKopBjUJ3-14" edge="1">
          <mxGeometry relative="1" as="geometry" />
        </mxCell>
        <mxCell id="SOkIeDreqhQxKopBjUJ3-12" value="显示结束和取消按钮" style="rounded=0;whiteSpace=wrap;html=1;shadow=0;labelBackgroundColor=none;strokeWidth=1;fontFamily=Verdana;fontSize=12;align=center;" parent="0t98YCe5Zw7eO1GMQgLX-1" vertex="1">
          <mxGeometry x="1446.8600000000001" y="785" width="100" height="60" as="geometry" />
        </mxCell>
        <mxCell id="SOkIeDreqhQxKopBjUJ3-13" style="edgeStyle=orthogonalEdgeStyle;rounded=1;jumpStyle=arc;orthogonalLoop=1;jettySize=auto;html=1;fontFamily=Verdana;fontSize=12;" parent="0t98YCe5Zw7eO1GMQgLX-1" source="SOkIeDreqhQxKopBjUJ3-14" target="SOkIeDreqhQxKopBjUJ3-20" edge="1">
          <mxGeometry relative="1" as="geometry" />
        </mxCell>
        <mxCell id="SOkIeDreqhQxKopBjUJ3-14" value="用户点击&lt;br&gt;结束按钮" style="rounded=1;whiteSpace=wrap;html=1;shadow=0;labelBackgroundColor=none;strokeWidth=1;fontFamily=Verdana;fontSize=12;align=center;" parent="0t98YCe5Zw7eO1GMQgLX-1" vertex="1">
          <mxGeometry x="1446.8600000000001" y="905" width="100" height="60" as="geometry" />
        </mxCell>
        <mxCell id="SOkIeDreqhQxKopBjUJ3-15" style="edgeStyle=orthogonalEdgeStyle;orthogonalLoop=1;jettySize=auto;html=1;exitX=0.5;exitY=1;exitDx=0;exitDy=0;fontSize=12;" parent="0t98YCe5Zw7eO1GMQgLX-1" source="SOkIeDreqhQxKopBjUJ3-16" target="SOkIeDreqhQxKopBjUJ3-23" edge="1">
          <mxGeometry relative="1" as="geometry" />
        </mxCell>
        <UserObject label="在框架中&lt;br&gt;打开消息的url" link="data:page/id,74e2e168-ea6b-b213-b513-2b3c1d86103e" id="SOkIeDreqhQxKopBjUJ3-16">
          <mxCell style="rounded=0;whiteSpace=wrap;html=1;shadow=0;labelBackgroundColor=none;strokeWidth=1;fontFamily=Verdana;fontSize=12;align=center;" parent="0t98YCe5Zw7eO1GMQgLX-1" vertex="1">
            <mxGeometry x="1290" y="465" width="100" height="60" as="geometry" />
          </mxCell>
        </UserObject>
        <mxCell id="SOkIeDreqhQxKopBjUJ3-17" value="判断消息状态" style="rounded=0;whiteSpace=wrap;html=1;shadow=0;labelBackgroundColor=none;strokeWidth=1;fontFamily=Verdana;fontSize=12;align=center;" parent="0t98YCe5Zw7eO1GMQgLX-1" vertex="1">
          <mxGeometry x="1290" y="235" width="100" height="60" as="geometry" />
        </mxCell>
        <mxCell id="SOkIeDreqhQxKopBjUJ3-18" style="edgeStyle=orthogonalEdgeStyle;rounded=1;orthogonalLoop=1;jettySize=auto;html=1;fontFamily=Verdana;fontSize=12;exitX=0.5;exitY=1;exitDx=0;exitDy=0;exitPerimeter=0;" parent="0t98YCe5Zw7eO1GMQgLX-1" source="SOkIeDreqhQxKopBjUJ3-28" target="SOkIeDreqhQxKopBjUJ3-17" edge="1">
          <mxGeometry relative="1" as="geometry">
            <mxPoint x="1340" y="195" as="sourcePoint" />
            <mxPoint x="1260" y="315" as="targetPoint" />
          </mxGeometry>
        </mxCell>
        <mxCell id="SOkIeDreqhQxKopBjUJ3-19" style="edgeStyle=orthogonalEdgeStyle;orthogonalLoop=1;jettySize=auto;html=1;fontSize=12;exitX=0.5;exitY=1;exitDx=0;exitDy=0;" parent="0t98YCe5Zw7eO1GMQgLX-1" source="751NbOBxNoRKh91cOk0A-4" target="SOkIeDreqhQxKopBjUJ3-23" edge="1">
          <mxGeometry relative="1" as="geometry">
            <mxPoint x="1497" y="1280" as="sourcePoint" />
          </mxGeometry>
        </mxCell>
        <UserObject label="发送给框架&lt;br&gt;stepRec_over" id="SOkIeDreqhQxKopBjUJ3-20">
          <mxCell style="shape=parallelogram;perimeter=parallelogramPerimeter;whiteSpace=wrap;html=1;rounded=0;shadow=0;strokeWidth=1;fontFamily=Verdana;" parent="0t98YCe5Zw7eO1GMQgLX-1" vertex="1">
            <mxGeometry x="1436.8600000000001" y="1005" width="120" height="60" as="geometry" />
          </mxCell>
        </UserObject>
        <mxCell id="SOkIeDreqhQxKopBjUJ3-22" value="发送&lt;br&gt;&lt;span style=&quot;font-family: &amp;#34;verdana&amp;#34;&quot;&gt;stepRec_start&lt;/span&gt;" style="shape=parallelogram;perimeter=parallelogramPerimeter;whiteSpace=wrap;html=1;" parent="0t98YCe5Zw7eO1GMQgLX-1" vertex="1">
          <mxGeometry x="1436.8600000000001" y="685" width="120" height="60" as="geometry" />
        </mxCell>
        <mxCell id="SOkIeDreqhQxKopBjUJ3-23" value="end" style="strokeWidth=2;html=1;shape=mxgraph.flowchart.start_1;whiteSpace=wrap;rounded=0;shadow=0;fontFamily=Verdana;" parent="0t98YCe5Zw7eO1GMQgLX-1" vertex="1">
          <mxGeometry x="1290" y="1440" width="100" height="60" as="geometry" />
        </mxCell>
        <mxCell id="SOkIeDreqhQxKopBjUJ3-24" style="edgeStyle=orthogonalEdgeStyle;orthogonalLoop=1;jettySize=auto;html=1;exitX=0.5;exitY=1;exitDx=0;exitDy=0;fontSize=12;entryX=0.5;entryY=0;entryDx=0;entryDy=0;" parent="0t98YCe5Zw7eO1GMQgLX-1" source="SOkIeDreqhQxKopBjUJ3-20" target="SOkIeDreqhQxKopBjUJ3-25" edge="1">
          <mxGeometry relative="1" as="geometry">
            <mxPoint x="1496.8600000000001" y="1065" as="sourcePoint" />
            <mxPoint x="1497" y="1110" as="targetPoint" />
          </mxGeometry>
        </mxCell>
        <mxCell id="giFeb7P8bG7mF7aSyVMl-1" value="POST&lt;br&gt;/task" style="edgeStyle=orthogonalEdgeStyle;orthogonalLoop=1;jettySize=auto;html=1;exitX=1;exitY=0.5;exitDx=0;exitDy=0;entryX=0;entryY=0.5;entryDx=0;entryDy=0;fontSize=12;" parent="0t98YCe5Zw7eO1GMQgLX-1" source="SOkIeDreqhQxKopBjUJ3-25" target="giFeb7P8bG7mF7aSyVMl-2" edge="1">
          <mxGeometry relative="1" as="geometry">
            <mxPoint x="1660" y="1138" as="targetPoint" />
          </mxGeometry>
        </mxCell>
        <UserObject label="name:name&lt;br&gt;steps:Logs" id="SOkIeDreqhQxKopBjUJ3-25">
          <mxCell style="shape=parallelogram;perimeter=parallelogramPerimeter;whiteSpace=wrap;html=1;rounded=0;shadow=0;strokeWidth=1;fontFamily=Verdana;" parent="0t98YCe5Zw7eO1GMQgLX-1" vertex="1">
            <mxGeometry x="1436.8600000000001" y="1110" width="120" height="60" as="geometry" />
          </mxCell>
        </UserObject>
        <mxCell id="SOkIeDreqhQxKopBjUJ3-28" value="收到窗口消息" style="strokeWidth=1;html=1;shape=mxgraph.flowchart.start_1;whiteSpace=wrap;shadow=0;fontFamily=Verdana;fontSize=12;fontColor=#000000;align=center;strokeColor=#000000;fillColor=#ffffff;" parent="0t98YCe5Zw7eO1GMQgLX-1" vertex="1">
          <mxGeometry x="1290" y="135" width="100" height="60" as="geometry" />
        </mxCell>
        <mxCell id="751NbOBxNoRKh91cOk0A-2" style="edgeStyle=orthogonalEdgeStyle;orthogonalLoop=1;jettySize=auto;html=1;exitX=0.5;exitY=1;exitDx=0;exitDy=0;fontSize=12;entryX=1;entryY=0.5;entryDx=0;entryDy=0;" parent="0t98YCe5Zw7eO1GMQgLX-1" source="giFeb7P8bG7mF7aSyVMl-2" target="751NbOBxNoRKh91cOk0A-1" edge="1">
          <mxGeometry relative="1" as="geometry">
            <Array as="points">
              <mxPoint x="1720" y="1240" />
            </Array>
          </mxGeometry>
        </mxCell>
        <mxCell id="giFeb7P8bG7mF7aSyVMl-2" value="TASK" style="shape=dataStorage;whiteSpace=wrap;html=1;labelBackgroundColor=#ffffff;fillColor=none;gradientColor=none;" parent="0t98YCe5Zw7eO1GMQgLX-1" vertex="1">
          <mxGeometry x="1670" y="1110" width="100" height="60" as="geometry" />
        </mxCell>
        <UserObject label="taskId" id="751NbOBxNoRKh91cOk0A-1">
          <mxCell style="shape=parallelogram;perimeter=parallelogramPerimeter;whiteSpace=wrap;html=1;rounded=0;shadow=0;strokeWidth=1;fontFamily=Verdana;" parent="0t98YCe5Zw7eO1GMQgLX-1" vertex="1">
            <mxGeometry x="1436.8600000000001" y="1210" width="120" height="60" as="geometry" />
          </mxCell>
        </UserObject>
        <mxCell id="751NbOBxNoRKh91cOk0A-4" value="重定向到taskSetting" style="rounded=0;whiteSpace=wrap;html=1;shadow=0;labelBackgroundColor=none;strokeWidth=1;fontFamily=Verdana;fontSize=12;align=center;" parent="0t98YCe5Zw7eO1GMQgLX-1" vertex="1">
          <mxGeometry x="1446.8600000000001" y="1320" width="100" height="60" as="geometry" />
        </mxCell>
        <mxCell id="751NbOBxNoRKh91cOk0A-5" style="edgeStyle=orthogonalEdgeStyle;orthogonalLoop=1;jettySize=auto;html=1;fontSize=12;exitX=0.5;exitY=1;exitDx=0;exitDy=0;" parent="0t98YCe5Zw7eO1GMQgLX-1" source="751NbOBxNoRKh91cOk0A-1" target="751NbOBxNoRKh91cOk0A-4" edge="1">
          <mxGeometry relative="1" as="geometry">
            <mxPoint x="1497" y="1270" as="sourcePoint" />
            <mxPoint x="1340" y="1440" as="targetPoint" />
          </mxGeometry>
        </mxCell>
        <mxCell id="huAIh0ylmVy4OjZCI8KJ-4" style="edgeStyle=orthogonalEdgeStyle;orthogonalLoop=1;jettySize=auto;html=1;exitX=0.5;exitY=1;exitDx=0;exitDy=0;entryX=1;entryY=0.5;entryDx=0;entryDy=0;entryPerimeter=0;fontSize=12;" parent="0t98YCe5Zw7eO1GMQgLX-1" source="8CRvRTPmNKpxyuVD3Xtf-0" target="SOkIeDreqhQxKopBjUJ3-23" edge="1">
          <mxGeometry relative="1" as="geometry" />
        </mxCell>
        <UserObject label="Logs" id="8CRvRTPmNKpxyuVD3Xtf-0">
          <mxCell style="shape=parallelogram;perimeter=parallelogramPerimeter;whiteSpace=wrap;html=1;rounded=0;shadow=0;strokeWidth=1;fontFamily=Verdana;" parent="0t98YCe5Zw7eO1GMQgLX-1" vertex="1">
            <mxGeometry x="1850" y="465" width="120" height="60" as="geometry" />
          </mxCell>
        </UserObject>
        <mxCell id="8CRvRTPmNKpxyuVD3Xtf-1" style="edgeStyle=orthogonalEdgeStyle;orthogonalLoop=1;jettySize=auto;html=1;exitX=0.5;exitY=1;exitDx=0;exitDy=0;fontSize=12;" parent="0t98YCe5Zw7eO1GMQgLX-1" source="huAIh0ylmVy4OjZCI8KJ-0" target="8CRvRTPmNKpxyuVD3Xtf-0" edge="1">
          <mxGeometry relative="1" as="geometry">
            <mxPoint x="1910" y="525" as="sourcePoint" />
            <mxPoint x="1390" y="1470" as="targetPoint" />
          </mxGeometry>
        </mxCell>
      </root>
    </mxGraphModel>
  </diagram>
  <diagram id="dbs1yiCVlsh6StQ4tnbk" name="taskSetting.js">
    <mxGraphModel dx="1822" dy="822" grid="1" gridSize="10" guides="1" tooltips="1" connect="1" arrows="1" fold="1" page="0" pageScale="1" pageWidth="827" pageHeight="1169" math="0" shadow="0">
      <root>
        <mxCell id="Fi7AdgJmU_owvYg1GKw7-0" />
        <mxCell id="Fi7AdgJmU_owvYg1GKw7-1" parent="Fi7AdgJmU_owvYg1GKw7-0" />
        <mxCell id="l7VJkWgexFi9RTXuVM45-3" style="edgeStyle=orthogonalEdgeStyle;orthogonalLoop=1;jettySize=auto;html=1;exitX=0.5;exitY=1;exitDx=0;exitDy=0;exitPerimeter=0;fontSize=12;" parent="Fi7AdgJmU_owvYg1GKw7-1" source="PP_uRokWBshIz8oPCew9-0" target="nR1E5Tob9M_dEldZhbaI-0" edge="1">
          <mxGeometry relative="1" as="geometry" />
        </mxCell>
        <mxCell id="PP_uRokWBshIz8oPCew9-0" value="start" style="strokeWidth=2;html=1;shape=mxgraph.flowchart.start_1;whiteSpace=wrap;labelBackgroundColor=#ffffff;fillColor=none;gradientColor=none;" parent="Fi7AdgJmU_owvYg1GKw7-1" vertex="1">
          <mxGeometry x="120" y="40" width="100" height="60" as="geometry" />
        </mxCell>
        <mxCell id="iv2xdixvYFVBq_ym58AB-7" style="edgeStyle=orthogonalEdgeStyle;orthogonalLoop=1;jettySize=auto;html=1;exitX=1;exitY=0.5;exitDx=0;exitDy=0;fontSize=12;" parent="Fi7AdgJmU_owvYg1GKw7-1" source="nR1E5Tob9M_dEldZhbaI-0" target="iv2xdixvYFVBq_ym58AB-6" edge="1">
          <mxGeometry relative="1" as="geometry" />
        </mxCell>
        <mxCell id="1mjASZRS_gUZF4EuZtKb-8" style="edgeStyle=orthogonalEdgeStyle;orthogonalLoop=1;jettySize=auto;html=1;exitX=0.5;exitY=1;exitDx=0;exitDy=0;entryX=0.5;entryY=0;entryDx=0;entryDy=0;entryPerimeter=0;fontSize=12;" parent="Fi7AdgJmU_owvYg1GKw7-1" source="nR1E5Tob9M_dEldZhbaI-0" target="1mjASZRS_gUZF4EuZtKb-7" edge="1">
          <mxGeometry relative="1" as="geometry" />
        </mxCell>
        <UserObject label="监听窗口消息" id="nR1E5Tob9M_dEldZhbaI-0">
          <mxCell style="rounded=0;whiteSpace=wrap;html=1;shadow=0;labelBackgroundColor=none;strokeWidth=1;fontFamily=Verdana;fontSize=12;align=center;" parent="Fi7AdgJmU_owvYg1GKw7-1" vertex="1">
            <mxGeometry x="120" y="140" width="100" height="60" as="geometry" />
          </mxCell>
        </UserObject>
        <mxCell id="l7VJkWgexFi9RTXuVM45-6" style="edgeStyle=orthogonalEdgeStyle;orthogonalLoop=1;jettySize=auto;html=1;exitX=0.5;exitY=1;exitDx=0;exitDy=0;entryX=0.5;entryY=0;entryDx=0;entryDy=0;fontSize=12;" parent="Fi7AdgJmU_owvYg1GKw7-1" source="iv2xdixvYFVBq_ym58AB-4" target="hyXAMeeYEWiuL2eUThqx-0" edge="1">
          <mxGeometry relative="1" as="geometry">
            <mxPoint x="370" y="350" as="targetPoint" />
          </mxGeometry>
        </mxCell>
        <mxCell id="iv2xdixvYFVBq_ym58AB-4" value="判断消息状态" style="rounded=0;whiteSpace=wrap;html=1;shadow=0;labelBackgroundColor=none;strokeWidth=1;fontFamily=Verdana;fontSize=12;align=center;" parent="Fi7AdgJmU_owvYg1GKw7-1" vertex="1">
          <mxGeometry x="320" y="250" width="100" height="60" as="geometry" />
        </mxCell>
        <mxCell id="iv2xdixvYFVBq_ym58AB-5" style="edgeStyle=orthogonalEdgeStyle;rounded=1;orthogonalLoop=1;jettySize=auto;html=1;fontFamily=Verdana;fontSize=12;exitX=0.5;exitY=1;exitDx=0;exitDy=0;exitPerimeter=0;" parent="Fi7AdgJmU_owvYg1GKw7-1" source="iv2xdixvYFVBq_ym58AB-6" target="iv2xdixvYFVBq_ym58AB-4" edge="1">
          <mxGeometry relative="1" as="geometry">
            <mxPoint x="370" y="200" as="sourcePoint" />
            <mxPoint x="290" y="320" as="targetPoint" />
          </mxGeometry>
        </mxCell>
        <mxCell id="iv2xdixvYFVBq_ym58AB-6" value="收到窗口消息" style="strokeWidth=1;html=1;shape=mxgraph.flowchart.start_1;whiteSpace=wrap;shadow=0;fontFamily=Verdana;fontSize=12;fontColor=#000000;align=center;strokeColor=#000000;fillColor=#ffffff;" parent="Fi7AdgJmU_owvYg1GKw7-1" vertex="1">
          <mxGeometry x="320" y="140" width="100" height="60" as="geometry" />
        </mxCell>
        <mxCell id="1mjASZRS_gUZF4EuZtKb-7" value="end" style="strokeWidth=2;html=1;shape=mxgraph.flowchart.start_1;whiteSpace=wrap;labelBackgroundColor=#ffffff;fillColor=none;gradientColor=none;" parent="Fi7AdgJmU_owvYg1GKw7-1" vertex="1">
          <mxGeometry x="120" y="780" width="100" height="60" as="geometry" />
        </mxCell>
        <mxCell id="ieuwjTrM6eDuH_mcAeKU-0" value="服务器端渲染：&lt;br&gt;设置框架url&lt;br&gt;渲染步骤列表" style="text;html=1;strokeColor=none;fillColor=none;align=left;verticalAlign=middle;whiteSpace=wrap;rounded=0;labelBackgroundColor=#ffffff;" parent="Fi7AdgJmU_owvYg1GKw7-1" vertex="1">
          <mxGeometry x="-80" y="40" width="130" height="50" as="geometry" />
        </mxCell>
        <mxCell id="4aV-E1XC_VQbF72zHePA-12" style="edgeStyle=orthogonalEdgeStyle;orthogonalLoop=1;jettySize=auto;html=1;exitX=0.5;exitY=1;exitDx=0;exitDy=0;exitPerimeter=0;fontSize=12;" parent="Fi7AdgJmU_owvYg1GKw7-1" source="l7VJkWgexFi9RTXuVM45-0" target="4aV-E1XC_VQbF72zHePA-2" edge="1">
          <mxGeometry relative="1" as="geometry" />
        </mxCell>
        <mxCell id="l7VJkWgexFi9RTXuVM45-0" value="删除步骤" style="strokeWidth=2;html=1;shape=mxgraph.flowchart.start_1;whiteSpace=wrap;labelBackgroundColor=#ffffff;fillColor=none;gradientColor=none;" parent="Fi7AdgJmU_owvYg1GKw7-1" vertex="1">
          <mxGeometry x="900" y="40" width="100" height="60" as="geometry" />
        </mxCell>
        <mxCell id="4aV-E1XC_VQbF72zHePA-13" style="edgeStyle=orthogonalEdgeStyle;orthogonalLoop=1;jettySize=auto;html=1;exitX=0.5;exitY=1;exitDx=0;exitDy=0;exitPerimeter=0;entryX=0.5;entryY=0;entryDx=0;entryDy=0;fontSize=12;" parent="Fi7AdgJmU_owvYg1GKw7-1" source="l7VJkWgexFi9RTXuVM45-1" target="4aV-E1XC_VQbF72zHePA-10" edge="1">
          <mxGeometry relative="1" as="geometry" />
        </mxCell>
        <mxCell id="l7VJkWgexFi9RTXuVM45-1" value="保存" style="strokeWidth=2;html=1;shape=mxgraph.flowchart.start_1;whiteSpace=wrap;labelBackgroundColor=#ffffff;fillColor=none;gradientColor=none;" parent="Fi7AdgJmU_owvYg1GKw7-1" vertex="1">
          <mxGeometry x="1130" y="40" width="100" height="60" as="geometry" />
        </mxCell>
        <mxCell id="4aV-E1XC_VQbF72zHePA-22" style="edgeStyle=orthogonalEdgeStyle;orthogonalLoop=1;jettySize=auto;html=1;exitX=0.5;exitY=1;exitDx=0;exitDy=0;exitPerimeter=0;entryX=1;entryY=0.5;entryDx=0;entryDy=0;entryPerimeter=0;fontSize=12;" parent="Fi7AdgJmU_owvYg1GKw7-1" source="l7VJkWgexFi9RTXuVM45-2" target="4aV-E1XC_VQbF72zHePA-19" edge="1">
          <mxGeometry relative="1" as="geometry" />
        </mxCell>
        <mxCell id="l7VJkWgexFi9RTXuVM45-2" value="取消" style="strokeWidth=2;html=1;shape=mxgraph.flowchart.start_1;whiteSpace=wrap;labelBackgroundColor=#ffffff;fillColor=none;gradientColor=none;" parent="Fi7AdgJmU_owvYg1GKw7-1" vertex="1">
          <mxGeometry x="1550" y="40" width="100" height="60" as="geometry" />
        </mxCell>
        <mxCell id="3IKxhTj5i7Ef3zHeeeE7-5" style="edgeStyle=orthogonalEdgeStyle;orthogonalLoop=1;jettySize=auto;html=1;exitX=0;exitY=0.5;exitDx=0;exitDy=0;entryX=0.5;entryY=0;entryDx=0;entryDy=0;entryPerimeter=0;fontSize=12;" parent="Fi7AdgJmU_owvYg1GKw7-1" source="hyXAMeeYEWiuL2eUThqx-0" target="1mjASZRS_gUZF4EuZtKb-7" edge="1">
          <mxGeometry relative="1" as="geometry" />
        </mxCell>
        <mxCell id="3IKxhTj5i7Ef3zHeeeE7-7" style="edgeStyle=orthogonalEdgeStyle;orthogonalLoop=1;jettySize=auto;html=1;exitX=0.5;exitY=1;exitDx=0;exitDy=0;entryX=0.5;entryY=0;entryDx=0;entryDy=0;fontSize=12;" parent="Fi7AdgJmU_owvYg1GKw7-1" source="hyXAMeeYEWiuL2eUThqx-0" target="3IKxhTj5i7Ef3zHeeeE7-6" edge="1">
          <mxGeometry relative="1" as="geometry" />
        </mxCell>
        <mxCell id="hyXAMeeYEWiuL2eUThqx-0" value="isReady" style="rhombus;whiteSpace=wrap;html=1;labelBackgroundColor=#ffffff;fillColor=none;gradientColor=none;align=center;" parent="Fi7AdgJmU_owvYg1GKw7-1" vertex="1">
          <mxGeometry x="330" y="360" width="80" height="80" as="geometry" />
        </mxCell>
        <mxCell id="ZSU0mmp7qHuQPlRR4zyB-2" style="edgeStyle=orthogonalEdgeStyle;orthogonalLoop=1;jettySize=auto;html=1;entryX=1;entryY=0.5;entryDx=0;entryDy=0;fontSize=12;" parent="Fi7AdgJmU_owvYg1GKw7-1" source="ZSU0mmp7qHuQPlRR4zyB-1" target="fbsC7A8h6yJRu96dcUkD-0" edge="1">
          <mxGeometry relative="1" as="geometry">
            <mxPoint x="409" y="570" as="targetPoint" />
          </mxGeometry>
        </mxCell>
        <mxCell id="ZSU0mmp7qHuQPlRR4zyB-1" value="TASK" style="strokeWidth=2;html=1;shape=mxgraph.flowchart.stored_data;whiteSpace=wrap;labelBackgroundColor=#ffffff;fillColor=none;gradientColor=none;align=center;" parent="Fi7AdgJmU_owvYg1GKw7-1" vertex="1">
          <mxGeometry x="610" y="590" width="100" height="60" as="geometry" />
        </mxCell>
        <mxCell id="BwotnLW74B1h8uFMHLZY-0" style="edgeStyle=orthogonalEdgeStyle;orthogonalLoop=1;jettySize=auto;html=1;exitX=0.5;exitY=1;exitDx=0;exitDy=0;entryX=1;entryY=0.5;entryDx=0;entryDy=0;entryPerimeter=0;fontSize=12;" parent="Fi7AdgJmU_owvYg1GKw7-1" source="3IKxhTj5i7Ef3zHeeeE7-0" target="1mjASZRS_gUZF4EuZtKb-7" edge="1">
          <mxGeometry relative="1" as="geometry" />
        </mxCell>
        <mxCell id="fbsC7A8h6yJRu96dcUkD-0" value="&lt;span style=&quot;font-family: &amp;#34;verdana&amp;#34; ; white-space: normal&quot;&gt;status:rander&lt;/span&gt;&lt;br style=&quot;font-family: &amp;#34;verdana&amp;#34; ; white-space: normal&quot;&gt;&lt;span style=&quot;font-family: &amp;#34;verdana&amp;#34; ; white-space: normal&quot;&gt;steps&lt;/span&gt;" style="shape=parallelogram;perimeter=parallelogramPerimeter;whiteSpace=wrap;html=1;labelBackgroundColor=#ffffff;fillColor=none;gradientColor=none;align=center;size=0.15555555555555556;" parent="Fi7AdgJmU_owvYg1GKw7-1" vertex="1">
          <mxGeometry x="310" y="590" width="120" height="60" as="geometry" />
        </mxCell>
        <mxCell id="fbsC7A8h6yJRu96dcUkD-1" style="edgeStyle=orthogonalEdgeStyle;orthogonalLoop=1;jettySize=auto;html=1;exitX=0.5;exitY=1;exitDx=0;exitDy=0;fontSize=12;" parent="Fi7AdgJmU_owvYg1GKw7-1" source="fbsC7A8h6yJRu96dcUkD-0" target="fbsC7A8h6yJRu96dcUkD-0" edge="1">
          <mxGeometry relative="1" as="geometry" />
        </mxCell>
        <mxCell id="BwotnLW74B1h8uFMHLZY-2" style="edgeStyle=orthogonalEdgeStyle;orthogonalLoop=1;jettySize=auto;html=1;entryX=0.5;entryY=0;entryDx=0;entryDy=0;fontSize=12;entryPerimeter=0;exitX=1;exitY=0.5;exitDx=0;exitDy=0;" parent="Fi7AdgJmU_owvYg1GKw7-1" source="3IKxhTj5i7Ef3zHeeeE7-6" target="ZSU0mmp7qHuQPlRR4zyB-1" edge="1">
          <mxGeometry relative="1" as="geometry">
            <mxPoint x="520" y="495" as="sourcePoint" />
            <mxPoint x="370" y="590" as="targetPoint" />
          </mxGeometry>
        </mxCell>
        <mxCell id="3IKxhTj5i7Ef3zHeeeE7-4" value="GET&lt;br&gt;/task/taskId/steps" style="text;html=1;align=center;verticalAlign=middle;resizable=0;points=[];;labelBackgroundColor=#ffffff;" parent="BwotnLW74B1h8uFMHLZY-2" vertex="1" connectable="0">
          <mxGeometry x="0.0706" y="2" relative="1" as="geometry">
            <mxPoint x="-81" y="2" as="offset" />
          </mxGeometry>
        </mxCell>
        <mxCell id="3IKxhTj5i7Ef3zHeeeE7-0" value="发送给Monitor" style="rounded=0;whiteSpace=wrap;html=1;shadow=0;labelBackgroundColor=none;strokeWidth=1;fontFamily=Verdana;fontSize=12;align=center;" parent="Fi7AdgJmU_owvYg1GKw7-1" vertex="1">
          <mxGeometry x="320" y="690" width="100" height="60" as="geometry" />
        </mxCell>
        <mxCell id="3IKxhTj5i7Ef3zHeeeE7-1" style="edgeStyle=orthogonalEdgeStyle;orthogonalLoop=1;jettySize=auto;html=1;exitX=0.5;exitY=1;exitDx=0;exitDy=0;fontSize=12;" parent="Fi7AdgJmU_owvYg1GKw7-1" source="fbsC7A8h6yJRu96dcUkD-0" target="3IKxhTj5i7Ef3zHeeeE7-0" edge="1">
          <mxGeometry relative="1" as="geometry">
            <mxPoint x="370" y="750" as="sourcePoint" />
            <mxPoint x="220" y="900" as="targetPoint" />
          </mxGeometry>
        </mxCell>
        <mxCell id="4aV-E1XC_VQbF72zHePA-4" value="" style="edgeStyle=orthogonalEdgeStyle;orthogonalLoop=1;jettySize=auto;html=1;fontSize=12;" parent="Fi7AdgJmU_owvYg1GKw7-1" source="3IKxhTj5i7Ef3zHeeeE7-2" target="3IKxhTj5i7Ef3zHeeeE7-8" edge="1">
          <mxGeometry relative="1" as="geometry" />
        </mxCell>
        <mxCell id="4aV-E1XC_VQbF72zHePA-2" value="删除task.steps当前步骤" style="rounded=0;whiteSpace=wrap;html=1;shadow=0;fontFamily=Verdana;fontSize=12;fontColor=#000000;align=center;strokeColor=#000000;strokeWidth=1;fillColor=#ffffff;" parent="Fi7AdgJmU_owvYg1GKw7-1" vertex="1">
          <mxGeometry x="900" y="160" width="100" height="60" as="geometry" />
        </mxCell>
        <mxCell id="3IKxhTj5i7Ef3zHeeeE7-6" value="获取当前任务数据" style="rounded=0;whiteSpace=wrap;html=1;shadow=0;labelBackgroundColor=none;strokeWidth=1;fontFamily=Verdana;fontSize=12;align=center;" parent="Fi7AdgJmU_owvYg1GKw7-1" vertex="1">
          <mxGeometry x="320" y="480" width="100" height="60" as="geometry" />
        </mxCell>
        <mxCell id="4aV-E1XC_VQbF72zHePA-6" style="edgeStyle=orthogonalEdgeStyle;orthogonalLoop=1;jettySize=auto;html=1;exitX=0.5;exitY=1;exitDx=0;exitDy=0;fontSize=12;" parent="Fi7AdgJmU_owvYg1GKw7-1" source="4aV-E1XC_VQbF72zHePA-8" target="4aV-E1XC_VQbF72zHePA-5" edge="1">
          <mxGeometry relative="1" as="geometry" />
        </mxCell>
        <mxCell id="3IKxhTj5i7Ef3zHeeeE7-8" value="&lt;span style=&quot;font-family: &amp;#34;verdana&amp;#34; ; white-space: normal&quot;&gt;status:rander&lt;/span&gt;&lt;br style=&quot;font-family: &amp;#34;verdana&amp;#34; ; white-space: normal&quot;&gt;&lt;span style=&quot;font-family: &amp;#34;verdana&amp;#34; ; white-space: normal&quot;&gt;steps&lt;/span&gt;" style="shape=parallelogram;perimeter=parallelogramPerimeter;whiteSpace=wrap;html=1;labelBackgroundColor=#ffffff;fillColor=none;gradientColor=none;align=center;size=0.15555555555555556;" parent="Fi7AdgJmU_owvYg1GKw7-1" vertex="1">
          <mxGeometry x="890" y="360" width="120" height="60" as="geometry" />
        </mxCell>
        <mxCell id="4aV-E1XC_VQbF72zHePA-5" value="end" style="strokeWidth=2;html=1;shape=mxgraph.flowchart.start_1;whiteSpace=wrap;labelBackgroundColor=#ffffff;fillColor=none;gradientColor=none;" parent="Fi7AdgJmU_owvYg1GKw7-1" vertex="1">
          <mxGeometry x="900" y="560" width="100" height="60" as="geometry" />
        </mxCell>
        <mxCell id="4aV-E1XC_VQbF72zHePA-8" value="发送给Monitor" style="rounded=0;whiteSpace=wrap;html=1;shadow=0;labelBackgroundColor=none;strokeWidth=1;fontFamily=Verdana;fontSize=12;align=center;" parent="Fi7AdgJmU_owvYg1GKw7-1" vertex="1">
          <mxGeometry x="900" y="460" width="100" height="60" as="geometry" />
        </mxCell>
        <mxCell id="4aV-E1XC_VQbF72zHePA-9" style="edgeStyle=orthogonalEdgeStyle;orthogonalLoop=1;jettySize=auto;html=1;exitX=0.5;exitY=1;exitDx=0;exitDy=0;fontSize=12;" parent="Fi7AdgJmU_owvYg1GKw7-1" source="3IKxhTj5i7Ef3zHeeeE7-8" target="4aV-E1XC_VQbF72zHePA-8" edge="1">
          <mxGeometry relative="1" as="geometry">
            <mxPoint x="950" y="420" as="sourcePoint" />
            <mxPoint x="950" y="480" as="targetPoint" />
          </mxGeometry>
        </mxCell>
        <mxCell id="4aV-E1XC_VQbF72zHePA-15" style="edgeStyle=orthogonalEdgeStyle;orthogonalLoop=1;jettySize=auto;html=1;exitX=0.5;exitY=1;exitDx=0;exitDy=0;entryX=0.5;entryY=0;entryDx=0;entryDy=0;fontSize=12;" parent="Fi7AdgJmU_owvYg1GKw7-1" source="4aV-E1XC_VQbF72zHePA-10" target="4aV-E1XC_VQbF72zHePA-14" edge="1">
          <mxGeometry relative="1" as="geometry" />
        </mxCell>
        <mxCell id="4aV-E1XC_VQbF72zHePA-10" value="task.steps" style="shape=parallelogram;perimeter=parallelogramPerimeter;whiteSpace=wrap;html=1;shadow=0;fontFamily=Verdana;fontSize=12;fontColor=#000000;align=center;strokeColor=#000000;strokeWidth=1;fillColor=#ffffff;" parent="Fi7AdgJmU_owvYg1GKw7-1" vertex="1">
          <mxGeometry x="1130" y="160" width="100" height="60" as="geometry" />
        </mxCell>
        <mxCell id="3IKxhTj5i7Ef3zHeeeE7-2" value="在步骤列表中删除当前项" style="rounded=0;whiteSpace=wrap;html=1;shadow=0;labelBackgroundColor=none;strokeWidth=1;fontFamily=Verdana;fontSize=12;align=center;" parent="Fi7AdgJmU_owvYg1GKw7-1" vertex="1">
          <mxGeometry x="900" y="260" width="100" height="60" as="geometry" />
        </mxCell>
        <mxCell id="4aV-E1XC_VQbF72zHePA-11" value="" style="edgeStyle=orthogonalEdgeStyle;orthogonalLoop=1;jettySize=auto;html=1;fontSize=12;" parent="Fi7AdgJmU_owvYg1GKw7-1" source="4aV-E1XC_VQbF72zHePA-2" target="3IKxhTj5i7Ef3zHeeeE7-2" edge="1">
          <mxGeometry relative="1" as="geometry">
            <mxPoint x="1010" y="270" as="sourcePoint" />
            <mxPoint x="950" y="360" as="targetPoint" />
          </mxGeometry>
        </mxCell>
        <mxCell id="4aV-E1XC_VQbF72zHePA-17" style="edgeStyle=orthogonalEdgeStyle;orthogonalLoop=1;jettySize=auto;html=1;exitX=1;exitY=0.5;exitDx=0;exitDy=0;entryX=0;entryY=0.5;entryDx=0;entryDy=0;entryPerimeter=0;fontSize=12;" parent="Fi7AdgJmU_owvYg1GKw7-1" source="4aV-E1XC_VQbF72zHePA-14" target="4aV-E1XC_VQbF72zHePA-16" edge="1">
          <mxGeometry relative="1" as="geometry" />
        </mxCell>
        <mxCell id="4aV-E1XC_VQbF72zHePA-18" value="PATCH&lt;br&gt;task/taskId" style="text;html=1;align=center;verticalAlign=middle;resizable=0;points=[];;labelBackgroundColor=#ffffff;" parent="4aV-E1XC_VQbF72zHePA-17" vertex="1" connectable="0">
          <mxGeometry x="-0.104" y="-1" relative="1" as="geometry">
            <mxPoint as="offset" />
          </mxGeometry>
        </mxCell>
        <mxCell id="4aV-E1XC_VQbF72zHePA-14" value="发送给服务器" style="rounded=0;whiteSpace=wrap;html=1;shadow=0;labelBackgroundColor=none;strokeWidth=1;fontFamily=Verdana;fontSize=12;align=center;" parent="Fi7AdgJmU_owvYg1GKw7-1" vertex="1">
          <mxGeometry x="1130" y="260" width="100" height="60" as="geometry" />
        </mxCell>
        <mxCell id="4aV-E1XC_VQbF72zHePA-21" style="edgeStyle=orthogonalEdgeStyle;orthogonalLoop=1;jettySize=auto;html=1;exitX=0.5;exitY=1;exitDx=0;exitDy=0;exitPerimeter=0;entryX=1;entryY=0.5;entryDx=0;entryDy=0;fontSize=12;" parent="Fi7AdgJmU_owvYg1GKw7-1" source="4aV-E1XC_VQbF72zHePA-16" target="4aV-E1XC_VQbF72zHePA-19" edge="1">
          <mxGeometry relative="1" as="geometry" />
        </mxCell>
        <mxCell id="4aV-E1XC_VQbF72zHePA-16" value="TASK" style="strokeWidth=2;html=1;shape=mxgraph.flowchart.stored_data;whiteSpace=wrap;labelBackgroundColor=#ffffff;fillColor=none;gradientColor=none;align=center;" parent="Fi7AdgJmU_owvYg1GKw7-1" vertex="1">
          <mxGeometry x="1380" y="260" width="100" height="60" as="geometry" />
        </mxCell>
        <mxCell id="4aV-E1XC_VQbF72zHePA-19" value="重定向到&lt;br&gt;tasks页面" style="strokeWidth=1;html=1;shape=mxgraph.flowchart.start_1;whiteSpace=wrap;shadow=0;fontFamily=Verdana;fontSize=12;fontColor=#000000;align=center;strokeColor=#000000;fillColor=#ffffff;" parent="Fi7AdgJmU_owvYg1GKw7-1" vertex="1">
          <mxGeometry x="1130" y="360" width="100" height="60" as="geometry" />
        </mxCell>
      </root>
    </mxGraphModel>
  </diagram>
  <diagram id="IiS8cWLOLFKv2xNwmWvj" name="testing">
    <mxGraphModel dx="1822" dy="822" grid="1" gridSize="10" guides="1" tooltips="1" connect="1" arrows="1" fold="1" page="0" pageScale="1" pageWidth="827" pageHeight="1169" math="0" shadow="0">
      <root>
        <mxCell id="5x464McjxDjpgb7IRjAP-0" />
        <mxCell id="5x464McjxDjpgb7IRjAP-1" parent="5x464McjxDjpgb7IRjAP-0" />
        <mxCell id="jAGvI1HmDx3R7sReOxWn-2" style="edgeStyle=orthogonalEdgeStyle;orthogonalLoop=1;jettySize=auto;html=1;fontSize=12;" parent="5x464McjxDjpgb7IRjAP-1" source="2b1I8qoS32r5PXjW_sD_-4" target="jAGvI1HmDx3R7sReOxWn-1" edge="1">
          <mxGeometry relative="1" as="geometry" />
        </mxCell>
        <mxCell id="jAGvI1HmDx3R7sReOxWn-0" value="start" style="strokeWidth=2;html=1;shape=mxgraph.flowchart.start_1;whiteSpace=wrap;labelBackgroundColor=#ffffff;fillColor=none;gradientColor=none;" parent="5x464McjxDjpgb7IRjAP-1" vertex="1">
          <mxGeometry y="120" width="100" height="60" as="geometry" />
        </mxCell>
        <mxCell id="jAGvI1HmDx3R7sReOxWn-1" value="end" style="strokeWidth=2;html=1;shape=mxgraph.flowchart.start_1;whiteSpace=wrap;labelBackgroundColor=#ffffff;fillColor=none;gradientColor=none;" parent="5x464McjxDjpgb7IRjAP-1" vertex="1">
          <mxGeometry y="700" width="100" height="60" as="geometry" />
        </mxCell>
        <mxCell id="kUlkjT0doZuSyISMhZpf-7" style="edgeStyle=orthogonalEdgeStyle;orthogonalLoop=1;jettySize=auto;html=1;exitX=1;exitY=0.5;exitDx=0;exitDy=0;entryX=0;entryY=0.5;entryDx=0;entryDy=0;entryPerimeter=0;fontSize=12;dashed=1;" parent="5x464McjxDjpgb7IRjAP-1" source="jAGvI1HmDx3R7sReOxWn-3" target="kUlkjT0doZuSyISMhZpf-6" edge="1">
          <mxGeometry relative="1" as="geometry" />
        </mxCell>
        <mxCell id="KoYXaZxkH62Bp8G_GclR-0" style="edgeStyle=orthogonalEdgeStyle;orthogonalLoop=1;jettySize=auto;html=1;exitX=0.5;exitY=1;exitDx=0;exitDy=0;entryX=0.5;entryY=0;entryDx=0;entryDy=0;fontSize=12;" parent="5x464McjxDjpgb7IRjAP-1" source="jAGvI1HmDx3R7sReOxWn-3" target="2b1I8qoS32r5PXjW_sD_-4" edge="1">
          <mxGeometry relative="1" as="geometry" />
        </mxCell>
        <mxCell id="jAGvI1HmDx3R7sReOxWn-3" value="监听窗口消息" style="rounded=0;whiteSpace=wrap;html=1;labelBackgroundColor=#ffffff;fillColor=none;gradientColor=none;" parent="5x464McjxDjpgb7IRjAP-1" vertex="1">
          <mxGeometry x="-10" y="490" width="120" height="60" as="geometry" />
        </mxCell>
        <mxCell id="kUlkjT0doZuSyISMhZpf-0" value="" style="edgeStyle=orthogonalEdgeStyle;orthogonalLoop=1;jettySize=auto;html=1;fontSize=12;exitX=0.5;exitY=1;exitDx=0;exitDy=0;entryX=0.5;entryY=0;entryDx=0;entryDy=0;" parent="5x464McjxDjpgb7IRjAP-1" source="kUlkjT0doZuSyISMhZpf-4" target="kUlkjT0doZuSyISMhZpf-3" edge="1">
          <mxGeometry relative="1" as="geometry">
            <mxPoint x="410" y="760" as="sourcePoint" />
          </mxGeometry>
        </mxCell>
        <mxCell id="J3pugZJis1zV70oIeJgX-3" style="edgeStyle=orthogonalEdgeStyle;orthogonalLoop=1;jettySize=auto;html=1;exitX=0.5;exitY=1;exitDx=0;exitDy=0;fontSize=12;" parent="5x464McjxDjpgb7IRjAP-1" source="kUlkjT0doZuSyISMhZpf-1" target="J3pugZJis1zV70oIeJgX-0" edge="1">
          <mxGeometry relative="1" as="geometry" />
        </mxCell>
        <mxCell id="h_MTcbix4PthZf0Eq38C-1" value="" style="edgeStyle=orthogonalEdgeStyle;orthogonalLoop=1;jettySize=auto;html=1;fontSize=12;" parent="5x464McjxDjpgb7IRjAP-1" source="kUlkjT0doZuSyISMhZpf-1" target="h_MTcbix4PthZf0Eq38C-0" edge="1">
          <mxGeometry relative="1" as="geometry" />
        </mxCell>
        <mxCell id="kUlkjT0doZuSyISMhZpf-1" value="isReady" style="rhombus;whiteSpace=wrap;html=1;rounded=0;shadow=0;strokeWidth=1;fontFamily=Verdana;" parent="5x464McjxDjpgb7IRjAP-1" vertex="1">
          <mxGeometry x="530.0000000000001" y="700" width="80" height="80" as="geometry" />
        </mxCell>
        <mxCell id="KlRKTxbDAW2wu6422y3B-1" style="edgeStyle=orthogonalEdgeStyle;orthogonalLoop=1;jettySize=auto;html=1;exitX=0.5;exitY=1;exitDx=0;exitDy=0;entryX=1;entryY=0.5;entryDx=0;entryDy=0;fontSize=12;entryPerimeter=0;" parent="5x464McjxDjpgb7IRjAP-1" source="8C0UvJudNOSEaqAzMjBW-1" target="2b1I8qoS32r5PXjW_sD_-3" edge="1">
          <mxGeometry relative="1" as="geometry">
            <mxPoint x="730.5294117647059" y="940.0588235294117" as="targetPoint" />
          </mxGeometry>
        </mxCell>
        <mxCell id="8C0UvJudNOSEaqAzMjBW-3" value="否" style="text;html=1;align=center;verticalAlign=middle;resizable=0;points=[];;labelBackgroundColor=#ffffff;" parent="KlRKTxbDAW2wu6422y3B-1" vertex="1" connectable="0">
          <mxGeometry x="-0.9009" relative="1" as="geometry">
            <mxPoint as="offset" />
          </mxGeometry>
        </mxCell>
        <mxCell id="h_MTcbix4PthZf0Eq38C-0" value="rec" style="rhombus;whiteSpace=wrap;html=1;rounded=0;shadow=0;strokeWidth=1;fontFamily=Verdana;" parent="5x464McjxDjpgb7IRjAP-1" vertex="1">
          <mxGeometry x="690.0000000000001" y="700" width="80" height="80" as="geometry" />
        </mxCell>
        <mxCell id="kUlkjT0doZuSyISMhZpf-2" style="edgeStyle=orthogonalEdgeStyle;orthogonalLoop=1;jettySize=auto;html=1;exitX=1;exitY=0.5;exitDx=0;exitDy=0;entryX=0;entryY=0.5;entryDx=0;entryDy=0;fontSize=12;" parent="5x464McjxDjpgb7IRjAP-1" source="kUlkjT0doZuSyISMhZpf-3" target="kUlkjT0doZuSyISMhZpf-1" edge="1">
          <mxGeometry relative="1" as="geometry" />
        </mxCell>
        <mxCell id="kUlkjT0doZuSyISMhZpf-8" style="edgeStyle=orthogonalEdgeStyle;orthogonalLoop=1;jettySize=auto;html=1;exitX=0.5;exitY=1;exitDx=0;exitDy=0;fontSize=12;entryX=0.5;entryY=0;entryDx=0;entryDy=0;entryPerimeter=0;" parent="5x464McjxDjpgb7IRjAP-1" source="kUlkjT0doZuSyISMhZpf-3" target="2b1I8qoS32r5PXjW_sD_-3" edge="1">
          <mxGeometry relative="1" as="geometry">
            <mxPoint x="410" y="830" as="targetPoint" />
          </mxGeometry>
        </mxCell>
        <mxCell id="kUlkjT0doZuSyISMhZpf-3" value="init" style="rhombus;whiteSpace=wrap;html=1;rounded=0;shadow=0;strokeWidth=1;fontFamily=Verdana;" parent="5x464McjxDjpgb7IRjAP-1" vertex="1">
          <mxGeometry x="370" y="700" width="80" height="80" as="geometry" />
        </mxCell>
        <mxCell id="kUlkjT0doZuSyISMhZpf-4" value="判断消息状态" style="rounded=0;whiteSpace=wrap;html=1;shadow=0;labelBackgroundColor=none;strokeWidth=1;fontFamily=Verdana;fontSize=12;align=center;" parent="5x464McjxDjpgb7IRjAP-1" vertex="1">
          <mxGeometry x="360" y="590" width="100" height="60" as="geometry" />
        </mxCell>
        <mxCell id="kUlkjT0doZuSyISMhZpf-5" style="edgeStyle=orthogonalEdgeStyle;rounded=1;orthogonalLoop=1;jettySize=auto;html=1;fontFamily=Verdana;fontSize=12;exitX=0.5;exitY=1;exitDx=0;exitDy=0;exitPerimeter=0;" parent="5x464McjxDjpgb7IRjAP-1" source="kUlkjT0doZuSyISMhZpf-6" target="kUlkjT0doZuSyISMhZpf-4" edge="1">
          <mxGeometry relative="1" as="geometry">
            <mxPoint x="410" y="550" as="sourcePoint" />
            <mxPoint x="330" y="670" as="targetPoint" />
          </mxGeometry>
        </mxCell>
        <mxCell id="kUlkjT0doZuSyISMhZpf-6" value="收到窗口消息" style="strokeWidth=1;html=1;shape=mxgraph.flowchart.start_1;whiteSpace=wrap;shadow=0;fontFamily=Verdana;fontSize=12;fontColor=#000000;align=center;strokeColor=#000000;fillColor=#ffffff;" parent="5x464McjxDjpgb7IRjAP-1" vertex="1">
          <mxGeometry x="360" y="490" width="100" height="60" as="geometry" />
        </mxCell>
        <mxCell id="2b1I8qoS32r5PXjW_sD_-1" value="GET&lt;br&gt;task/taskId" style="edgeStyle=orthogonalEdgeStyle;orthogonalLoop=1;jettySize=auto;html=1;exitX=1;exitY=0.5;exitDx=0;exitDy=0;entryX=0;entryY=0.5;entryDx=0;entryDy=0;entryPerimeter=0;fontSize=12;" parent="5x464McjxDjpgb7IRjAP-1" source="kUlkjT0doZuSyISMhZpf-9" target="2b1I8qoS32r5PXjW_sD_-0" edge="1">
          <mxGeometry relative="1" as="geometry" />
        </mxCell>
        <mxCell id="kUlkjT0doZuSyISMhZpf-9" value="获取任务数据" style="rounded=0;whiteSpace=wrap;html=1;shadow=0;labelBackgroundColor=none;strokeWidth=1;fontFamily=Verdana;fontSize=12;align=center;" parent="5x464McjxDjpgb7IRjAP-1" vertex="1">
          <mxGeometry y="320" width="100" height="60" as="geometry" />
        </mxCell>
        <mxCell id="kUlkjT0doZuSyISMhZpf-14" style="edgeStyle=orthogonalEdgeStyle;orthogonalLoop=1;jettySize=auto;html=1;exitX=0.5;exitY=1;exitDx=0;exitDy=0;entryX=0.5;entryY=0;entryDx=0;entryDy=0;fontSize=12;" parent="5x464McjxDjpgb7IRjAP-1" source="kUlkjT0doZuSyISMhZpf-11" target="kUlkjT0doZuSyISMhZpf-9" edge="1">
          <mxGeometry relative="1" as="geometry" />
        </mxCell>
        <mxCell id="kUlkjT0doZuSyISMhZpf-11" value="解析URL&lt;br&gt;taskId" style="rounded=0;whiteSpace=wrap;html=1;shadow=0;labelBackgroundColor=none;strokeWidth=1;fontFamily=Verdana;fontSize=12;align=center;" parent="5x464McjxDjpgb7IRjAP-1" vertex="1">
          <mxGeometry y="220" width="100" height="60" as="geometry" />
        </mxCell>
        <mxCell id="kUlkjT0doZuSyISMhZpf-13" style="edgeStyle=orthogonalEdgeStyle;orthogonalLoop=1;jettySize=auto;html=1;fontSize=12;" parent="5x464McjxDjpgb7IRjAP-1" source="jAGvI1HmDx3R7sReOxWn-0" target="kUlkjT0doZuSyISMhZpf-11" edge="1">
          <mxGeometry relative="1" as="geometry">
            <mxPoint x="50" y="180" as="sourcePoint" />
            <mxPoint x="50" y="380" as="targetPoint" />
          </mxGeometry>
        </mxCell>
        <mxCell id="2b1I8qoS32r5PXjW_sD_-0" value="TASK" style="strokeWidth=2;html=1;shape=mxgraph.flowchart.stored_data;whiteSpace=wrap;labelBackgroundColor=#ffffff;fillColor=none;gradientColor=none;align=center;" parent="5x464McjxDjpgb7IRjAP-1" vertex="1">
          <mxGeometry x="240" y="320" width="100" height="60" as="geometry" />
        </mxCell>
        <mxCell id="2b1I8qoS32r5PXjW_sD_-3" value="" style="strokeWidth=2;html=1;shape=mxgraph.flowchart.start_1;whiteSpace=wrap;labelBackgroundColor=#ffffff;fillColor=none;gradientColor=none;" parent="5x464McjxDjpgb7IRjAP-1" vertex="1">
          <mxGeometry x="360" y="1200" width="100" height="60" as="geometry" />
        </mxCell>
        <mxCell id="2b1I8qoS32r5PXjW_sD_-4" value="在框架中打开&lt;br&gt;任务第一页" style="rounded=0;whiteSpace=wrap;html=1;labelBackgroundColor=#ffffff;fillColor=none;gradientColor=none;align=center;" parent="5x464McjxDjpgb7IRjAP-1" vertex="1">
          <mxGeometry x="-10" y="590" width="120" height="60" as="geometry" />
        </mxCell>
        <mxCell id="2b1I8qoS32r5PXjW_sD_-5" style="edgeStyle=orthogonalEdgeStyle;orthogonalLoop=1;jettySize=auto;html=1;fontSize=12;exitX=0.5;exitY=1;exitDx=0;exitDy=0;exitPerimeter=0;" parent="5x464McjxDjpgb7IRjAP-1" source="2b1I8qoS32r5PXjW_sD_-0" target="jAGvI1HmDx3R7sReOxWn-3" edge="1">
          <mxGeometry relative="1" as="geometry">
            <mxPoint x="290" y="380" as="sourcePoint" />
            <mxPoint x="150" y="540" as="targetPoint" />
          </mxGeometry>
        </mxCell>
        <mxCell id="J3pugZJis1zV70oIeJgX-2" style="edgeStyle=orthogonalEdgeStyle;orthogonalLoop=1;jettySize=auto;html=1;exitX=0.5;exitY=1;exitDx=0;exitDy=0;entryX=0.5;entryY=0;entryDx=0;entryDy=0;fontSize=12;" parent="5x464McjxDjpgb7IRjAP-1" source="J3pugZJis1zV70oIeJgX-0" target="J3pugZJis1zV70oIeJgX-1" edge="1">
          <mxGeometry relative="1" as="geometry" />
        </mxCell>
        <mxCell id="J3pugZJis1zV70oIeJgX-0" value="&lt;span style=&quot;font-family: &amp;#34;verdana&amp;#34;&quot;&gt;stepRec_start&lt;/span&gt;" style="shape=parallelogram;perimeter=parallelogramPerimeter;whiteSpace=wrap;html=1;" parent="5x464McjxDjpgb7IRjAP-1" vertex="1">
          <mxGeometry x="510.0000000000001" y="830" width="120" height="60" as="geometry" />
        </mxCell>
        <mxCell id="J3pugZJis1zV70oIeJgX-4" style="edgeStyle=orthogonalEdgeStyle;orthogonalLoop=1;jettySize=auto;html=1;exitX=0.5;exitY=1;exitDx=0;exitDy=0;entryX=0.5;entryY=0;entryDx=0;entryDy=0;entryPerimeter=0;fontSize=12;" parent="5x464McjxDjpgb7IRjAP-1" source="J3pugZJis1zV70oIeJgX-1" target="2b1I8qoS32r5PXjW_sD_-3" edge="1">
          <mxGeometry relative="1" as="geometry" />
        </mxCell>
        <mxCell id="J3pugZJis1zV70oIeJgX-1" value="发送给来源窗口" style="rounded=0;whiteSpace=wrap;html=1;shadow=0;labelBackgroundColor=none;strokeWidth=1;fontFamily=Verdana;fontSize=12;align=center;" parent="5x464McjxDjpgb7IRjAP-1" vertex="1">
          <mxGeometry x="520" y="940" width="100" height="60" as="geometry" />
        </mxCell>
        <mxCell id="ED13XClL7olfHfUE69vG-0" value="&lt;span style=&quot;font-family: &amp;#34;verdana&amp;#34;&quot;&gt;log&lt;/span&gt;" style="shape=parallelogram;perimeter=parallelogramPerimeter;whiteSpace=wrap;html=1;" parent="5x464McjxDjpgb7IRjAP-1" vertex="1">
          <mxGeometry x="670.0000000000001" y="940" width="120" height="60" as="geometry" />
        </mxCell>
        <mxCell id="ED13XClL7olfHfUE69vG-1" style="edgeStyle=orthogonalEdgeStyle;orthogonalLoop=1;jettySize=auto;html=1;exitX=0.5;exitY=1;exitDx=0;exitDy=0;entryX=0.5;entryY=0;entryDx=0;entryDy=0;fontSize=12;" parent="5x464McjxDjpgb7IRjAP-1" source="FELkLNqFdulVLlylopEG-0" target="ED13XClL7olfHfUE69vG-0" edge="1">
          <mxGeometry relative="1" as="geometry">
            <mxPoint x="730" y="780.3333333333335" as="sourcePoint" />
            <mxPoint x="730" y="940.3333333333335" as="targetPoint" />
          </mxGeometry>
        </mxCell>
        <mxCell id="FELkLNqFdulVLlylopEG-0" value="保存log" style="rounded=0;whiteSpace=wrap;html=1;shadow=0;labelBackgroundColor=none;strokeWidth=1;fontFamily=Verdana;fontSize=12;align=center;" parent="5x464McjxDjpgb7IRjAP-1" vertex="1">
          <mxGeometry x="680" y="830" width="100" height="60" as="geometry" />
        </mxCell>
        <mxCell id="FELkLNqFdulVLlylopEG-1" style="edgeStyle=orthogonalEdgeStyle;orthogonalLoop=1;jettySize=auto;html=1;exitX=0.5;exitY=1;exitDx=0;exitDy=0;entryX=0.5;entryY=0;entryDx=0;entryDy=0;fontSize=12;" parent="5x464McjxDjpgb7IRjAP-1" source="h_MTcbix4PthZf0Eq38C-0" target="FELkLNqFdulVLlylopEG-0" edge="1">
          <mxGeometry relative="1" as="geometry">
            <mxPoint x="730.5294117647059" y="780.0588235294117" as="sourcePoint" />
            <mxPoint x="730.5294117647059" y="940.0588235294117" as="targetPoint" />
          </mxGeometry>
        </mxCell>
        <mxCell id="8C0UvJudNOSEaqAzMjBW-5" style="edgeStyle=orthogonalEdgeStyle;orthogonalLoop=1;jettySize=auto;html=1;fontSize=12;exitX=0.5;exitY=1;exitDx=0;exitDy=0;exitPerimeter=0;entryX=1;entryY=0.5;entryDx=0;entryDy=0;" parent="5x464McjxDjpgb7IRjAP-1" source="8C0UvJudNOSEaqAzMjBW-8" target="8C0UvJudNOSEaqAzMjBW-4" edge="1">
          <mxGeometry relative="1" as="geometry" />
        </mxCell>
        <mxCell id="8C0UvJudNOSEaqAzMjBW-1" value="是否最后一步" style="rhombus;whiteSpace=wrap;html=1;rounded=0;shadow=0;strokeWidth=1;fontFamily=Verdana;" parent="5x464McjxDjpgb7IRjAP-1" vertex="1">
          <mxGeometry x="690.0000000000001" y="1040" width="80" height="80" as="geometry" />
        </mxCell>
        <mxCell id="8C0UvJudNOSEaqAzMjBW-2" style="edgeStyle=orthogonalEdgeStyle;orthogonalLoop=1;jettySize=auto;html=1;exitX=0.5;exitY=1;exitDx=0;exitDy=0;fontSize=12;" parent="5x464McjxDjpgb7IRjAP-1" source="ED13XClL7olfHfUE69vG-0" target="8C0UvJudNOSEaqAzMjBW-1" edge="1">
          <mxGeometry relative="1" as="geometry">
            <mxPoint x="730.5294117647059" y="1000.0588235294117" as="sourcePoint" />
            <mxPoint x="459.9411764705883" y="1229.4705882352941" as="targetPoint" />
          </mxGeometry>
        </mxCell>
        <mxCell id="8C0UvJudNOSEaqAzMjBW-4" value="跳转到任务列表页" style="rounded=0;whiteSpace=wrap;html=1;shadow=0;labelBackgroundColor=none;strokeWidth=1;fontFamily=Verdana;fontSize=12;align=center;" parent="5x464McjxDjpgb7IRjAP-1" vertex="1">
          <mxGeometry x="830" y="1150" width="120" height="60" as="geometry" />
        </mxCell>
        <mxCell id="8C0UvJudNOSEaqAzMjBW-9" style="edgeStyle=orthogonalEdgeStyle;orthogonalLoop=1;jettySize=auto;html=1;exitX=1;exitY=0.5;exitDx=0;exitDy=0;entryX=0;entryY=0.5;entryDx=0;entryDy=0;entryPerimeter=0;fontSize=12;" parent="5x464McjxDjpgb7IRjAP-1" source="8C0UvJudNOSEaqAzMjBW-6" target="8C0UvJudNOSEaqAzMjBW-8" edge="1">
          <mxGeometry relative="1" as="geometry" />
        </mxCell>
        <mxCell id="8C0UvJudNOSEaqAzMjBW-10" value="POST&lt;br&gt;/usertest" style="text;html=1;align=center;verticalAlign=middle;resizable=0;points=[];;labelBackgroundColor=#ffffff;" parent="8C0UvJudNOSEaqAzMjBW-9" vertex="1" connectable="0">
          <mxGeometry x="0.1733" y="-2" relative="1" as="geometry">
            <mxPoint x="-8" y="-2" as="offset" />
          </mxGeometry>
        </mxCell>
        <mxCell id="8C0UvJudNOSEaqAzMjBW-6" value="Logs发送给服务器" style="rounded=0;whiteSpace=wrap;html=1;labelBackgroundColor=#ffffff;fillColor=none;gradientColor=none;align=center;" parent="5x464McjxDjpgb7IRjAP-1" vertex="1">
          <mxGeometry x="830" y="1050" width="120" height="60" as="geometry" />
        </mxCell>
        <mxCell id="8C0UvJudNOSEaqAzMjBW-7" style="edgeStyle=orthogonalEdgeStyle;orthogonalLoop=1;jettySize=auto;html=1;exitX=1;exitY=0.5;exitDx=0;exitDy=0;entryX=0;entryY=0.5;entryDx=0;entryDy=0;fontSize=12;" parent="5x464McjxDjpgb7IRjAP-1" source="8C0UvJudNOSEaqAzMjBW-1" target="8C0UvJudNOSEaqAzMjBW-6" edge="1">
          <mxGeometry relative="1" as="geometry">
            <mxPoint x="770.5294117647059" y="1080.0588235294117" as="sourcePoint" />
            <mxPoint x="1019.9411764705883" y="1080.0588235294117" as="targetPoint" />
          </mxGeometry>
        </mxCell>
        <mxCell id="8C0UvJudNOSEaqAzMjBW-8" value="Usertest" style="strokeWidth=2;html=1;shape=mxgraph.flowchart.stored_data;whiteSpace=wrap;labelBackgroundColor=#ffffff;fillColor=none;gradientColor=none;align=center;" parent="5x464McjxDjpgb7IRjAP-1" vertex="1">
          <mxGeometry x="1100" y="1050" width="100" height="60" as="geometry" />
        </mxCell>
      </root>
    </mxGraphModel>
  </diagram>
  <diagram id="GXw5TMC1Ci608IyEpaIP" name="taskController">
    <mxGraphModel dx="1822" dy="1622" grid="1" gridSize="10" guides="1" tooltips="1" connect="1" arrows="1" fold="1" page="0" pageScale="1" pageWidth="827" pageHeight="1169" math="0" shadow="0">
      <root>
        <mxCell id="jw0qRpcTJ2zD5kRfdnh8-0" />
        <mxCell id="jw0qRpcTJ2zD5kRfdnh8-1" parent="jw0qRpcTJ2zD5kRfdnh8-0" />
        <mxCell id="BEzeaqhPmo8bjlBCDQV3-0" value="start" style="strokeWidth=2;html=1;shape=mxgraph.flowchart.start_1;whiteSpace=wrap;labelBackgroundColor=#ffffff;fillColor=none;gradientColor=none;" parent="jw0qRpcTJ2zD5kRfdnh8-1" vertex="1">
          <mxGeometry x="-230" y="-450" width="100" height="60" as="geometry" />
        </mxCell>
        <mxCell id="BEzeaqhPmo8bjlBCDQV3-3" style="edgeStyle=orthogonalEdgeStyle;orthogonalLoop=1;jettySize=auto;html=1;exitX=0.5;exitY=1;exitDx=0;exitDy=0;entryX=0.5;entryY=0;entryDx=0;entryDy=0;entryPerimeter=0;fontSize=12;" parent="jw0qRpcTJ2zD5kRfdnh8-1" source="BEzeaqhPmo8bjlBCDQV3-2" target="BEzeaqhPmo8bjlBCDQV3-0" edge="1">
          <mxGeometry relative="1" as="geometry" />
        </mxCell>
        <mxCell id="BEzeaqhPmo8bjlBCDQV3-2" value="create task" style="shape=process;whiteSpace=wrap;html=1;backgroundOutline=1;labelBackgroundColor=#ffffff;fillColor=none;gradientColor=none;" parent="jw0qRpcTJ2zD5kRfdnh8-1" vertex="1">
          <mxGeometry x="-240" y="-560" width="120" height="60" as="geometry" />
        </mxCell>
      </root>
    </mxGraphModel>
  </diagram>
  <diagram id="cSaBljbnsg7J5nM8tn5I" name="网络架构">
    <mxGraphModel dx="1422" dy="822" grid="1" gridSize="10" guides="1" tooltips="1" connect="1" arrows="1" fold="1" page="1" pageScale="1" pageWidth="827" pageHeight="1169" math="0" shadow="0">
      <root>
        <mxCell id="GYJlDdiJ4vabS9LSdDe9-0" />
        <mxCell id="GYJlDdiJ4vabS9LSdDe9-1" parent="GYJlDdiJ4vabS9LSdDe9-0" />
        <mxCell id="hBiviNtr315HoZza8FMn-1" value="" style="fontColor=#0066CC;verticalAlign=top;verticalLabelPosition=bottom;labelPosition=center;align=center;html=1;outlineConnect=0;fillColor=#CCCCCC;strokeColor=#6881B3;gradientColor=none;gradientDirection=north;strokeWidth=2;shape=mxgraph.networks.monitor;" parent="GYJlDdiJ4vabS9LSdDe9-1" vertex="1">
          <mxGeometry x="113" y="210" width="80" height="65" as="geometry" />
        </mxCell>
        <mxCell id="hBiviNtr315HoZza8FMn-2" value="Monitor_f" style="strokeWidth=2;html=1;shape=mxgraph.flowchart.document2;whiteSpace=wrap;size=0.25;" parent="GYJlDdiJ4vabS9LSdDe9-1" vertex="1">
          <mxGeometry x="427.75" y="320" width="100" height="60" as="geometry" />
        </mxCell>
        <mxCell id="hBiviNtr315HoZza8FMn-4" value="RaspberryPi" style="fontColor=#0066CC;verticalAlign=top;verticalLabelPosition=bottom;labelPosition=center;align=center;html=1;outlineConnect=0;fillColor=#CCCCCC;strokeColor=#6881B3;gradientColor=none;gradientDirection=north;strokeWidth=2;shape=mxgraph.networks.external_storage;" parent="GYJlDdiJ4vabS9LSdDe9-1" vertex="1">
          <mxGeometry x="388.25" y="210" width="49.5" height="55" as="geometry" />
        </mxCell>
        <mxCell id="hBiviNtr315HoZza8FMn-6" value="Prototester" style="rounded=1;whiteSpace=wrap;html=1;absoluteArcSize=1;arcSize=14;strokeWidth=2;" parent="GYJlDdiJ4vabS9LSdDe9-1" vertex="1">
          <mxGeometry x="303" y="320" width="100" height="55" as="geometry" />
        </mxCell>
        <mxCell id="hBiviNtr315HoZza8FMn-7" value="" style="html=1;outlineConnect=0;fillColor=#CCCCCC;strokeColor=#6881B3;gradientColor=none;gradientDirection=north;strokeWidth=2;shape=mxgraph.networks.cloud;fontColor=#ffffff;" parent="GYJlDdiJ4vabS9LSdDe9-1" vertex="1">
          <mxGeometry x="623" y="213" width="90" height="50" as="geometry" />
        </mxCell>
        <mxCell id="hBiviNtr315HoZza8FMn-9" value="Protos" style="strokeWidth=2;html=1;shape=mxgraph.flowchart.multi-document;whiteSpace=wrap;" parent="GYJlDdiJ4vabS9LSdDe9-1" vertex="1">
          <mxGeometry x="625" y="315" width="88" height="60" as="geometry" />
        </mxCell>
        <mxCell id="hBiviNtr315HoZza8FMn-10" value="" style="html=1;outlineConnect=0;fillColor=#CCCCCC;strokeColor=#6881B3;gradientColor=none;gradientDirection=north;strokeWidth=2;shape=mxgraph.networks.cloud;fontColor=#ffffff;" parent="GYJlDdiJ4vabS9LSdDe9-1" vertex="1">
          <mxGeometry x="368" y="440" width="90" height="50" as="geometry" />
        </mxCell>
        <mxCell id="hBiviNtr315HoZza8FMn-12" value="Monitor_f" style="strokeWidth=2;html=1;shape=mxgraph.flowchart.document2;whiteSpace=wrap;size=0.25;" parent="GYJlDdiJ4vabS9LSdDe9-1" vertex="1">
          <mxGeometry x="427.75" y="520" width="100" height="60" as="geometry" />
        </mxCell>
        <mxCell id="hBiviNtr315HoZza8FMn-13" value="Prototester" style="rounded=1;whiteSpace=wrap;html=1;absoluteArcSize=1;arcSize=14;strokeWidth=2;" parent="GYJlDdiJ4vabS9LSdDe9-1" vertex="1">
          <mxGeometry x="303" y="520" width="100" height="55" as="geometry" />
        </mxCell>
      </root>
    </mxGraphModel>
  </diagram>
  <diagram id="SLVZ4p0a9h5F6_GC2Uf2" name="第 7 页">
    <mxGraphModel dx="1422" dy="822" grid="1" gridSize="10" guides="1" tooltips="1" connect="1" arrows="1" fold="1" page="1" pageScale="1" pageWidth="827" pageHeight="1169" math="0" shadow="0">
      <root>
        <mxCell id="DGYPOYgg7bR7fAlz7qo8-0" />
        <mxCell id="DGYPOYgg7bR7fAlz7qo8-1" parent="DGYPOYgg7bR7fAlz7qo8-0" />
        <mxCell id="DGYPOYgg7bR7fAlz7qo8-6" value="testing" style="rounded=0;whiteSpace=wrap;html=1;" parent="DGYPOYgg7bR7fAlz7qo8-1" vertex="1">
          <mxGeometry x="80" y="190" width="110" height="50" as="geometry" />
        </mxCell>
        <mxCell id="DGYPOYgg7bR7fAlz7qo8-10" value="action1" style="rounded=0;whiteSpace=wrap;html=1;" parent="DGYPOYgg7bR7fAlz7qo8-1" vertex="1">
          <mxGeometry x="210" y="290" width="110" height="30" as="geometry" />
        </mxCell>
        <mxCell id="DGYPOYgg7bR7fAlz7qo8-11" value="action2" style="rounded=0;whiteSpace=wrap;html=1;" parent="DGYPOYgg7bR7fAlz7qo8-1" vertex="1">
          <mxGeometry x="210" y="320" width="110" height="30" as="geometry" />
        </mxCell>
        <mxCell id="DGYPOYgg7bR7fAlz7qo8-12" value="action3" style="rounded=0;whiteSpace=wrap;html=1;" parent="DGYPOYgg7bR7fAlz7qo8-1" vertex="1">
          <mxGeometry x="210" y="350" width="110" height="30" as="geometry" />
        </mxCell>
        <mxCell id="DGYPOYgg7bR7fAlz7qo8-16" value="task" style="rounded=0;whiteSpace=wrap;html=1;" parent="DGYPOYgg7bR7fAlz7qo8-1" vertex="1">
          <mxGeometry x="40" y="90" width="110" height="50" as="geometry" />
        </mxCell>
        <mxCell id="DGYPOYgg7bR7fAlz7qo8-17" value="steps" style="rounded=0;whiteSpace=wrap;html=1;" parent="DGYPOYgg7bR7fAlz7qo8-1" vertex="1">
          <mxGeometry x="80" y="550" width="110" height="50" as="geometry" />
        </mxCell>
        <mxCell id="DGYPOYgg7bR7fAlz7qo8-18" value="action1" style="rounded=0;whiteSpace=wrap;html=1;" parent="DGYPOYgg7bR7fAlz7qo8-1" vertex="1">
          <mxGeometry x="150" y="610" width="110" height="30" as="geometry" />
        </mxCell>
        <mxCell id="DGYPOYgg7bR7fAlz7qo8-19" value="action2" style="rounded=0;whiteSpace=wrap;html=1;" parent="DGYPOYgg7bR7fAlz7qo8-1" vertex="1">
          <mxGeometry x="150" y="640" width="110" height="30" as="geometry" />
        </mxCell>
        <mxCell id="DGYPOYgg7bR7fAlz7qo8-20" value="action3" style="rounded=0;whiteSpace=wrap;html=1;" parent="DGYPOYgg7bR7fAlz7qo8-1" vertex="1">
          <mxGeometry x="150" y="670" width="110" height="30" as="geometry" />
        </mxCell>
        <mxCell id="DGYPOYgg7bR7fAlz7qo8-21" value="testingTimeLine" style="rounded=0;whiteSpace=wrap;html=1;" parent="DGYPOYgg7bR7fAlz7qo8-1" vertex="1">
          <mxGeometry x="420" y="190" width="110" height="50" as="geometry" />
        </mxCell>
        <mxCell id="DGYPOYgg7bR7fAlz7qo8-22" value="log" style="rounded=0;whiteSpace=wrap;html=1;" parent="DGYPOYgg7bR7fAlz7qo8-1" vertex="1">
          <mxGeometry x="150" y="250" width="110" height="30" as="geometry" />
        </mxCell>
        <mxCell id="DGYPOYgg7bR7fAlz7qo8-23" value="ip" style="rounded=0;whiteSpace=wrap;html=1;" parent="DGYPOYgg7bR7fAlz7qo8-1" vertex="1">
          <mxGeometry x="150" y="390" width="110" height="30" as="geometry" />
        </mxCell>
        <mxCell id="DGYPOYgg7bR7fAlz7qo8-24" value="isComplated" style="rounded=0;whiteSpace=wrap;html=1;" parent="DGYPOYgg7bR7fAlz7qo8-1" vertex="1">
          <mxGeometry x="150" y="430" width="110" height="30" as="geometry" />
        </mxCell>
        <mxCell id="DGYPOYgg7bR7fAlz7qo8-26" value="" style="shape=curlyBracket;whiteSpace=wrap;html=1;rounded=1;" parent="DGYPOYgg7bR7fAlz7qo8-1" vertex="1">
          <mxGeometry x="110" y="250" width="20" height="210" as="geometry" />
        </mxCell>
        <mxCell id="DGYPOYgg7bR7fAlz7qo8-29" value="行为点时长数组" style="rounded=0;whiteSpace=wrap;html=1;" parent="DGYPOYgg7bR7fAlz7qo8-1" vertex="1">
          <mxGeometry x="358" y="530.5" width="110" height="30" as="geometry" />
        </mxCell>
        <mxCell id="DGYPOYgg7bR7fAlz7qo8-30" value="" style="shape=curlyBracket;whiteSpace=wrap;html=1;rounded=1;" parent="DGYPOYgg7bR7fAlz7qo8-1" vertex="1">
          <mxGeometry x="110" y="479.5" width="20" height="20.5" as="geometry" />
        </mxCell>
        <mxCell id="DGYPOYgg7bR7fAlz7qo8-31" value="" style="shape=curlyBracket;whiteSpace=wrap;html=1;rounded=1;" parent="DGYPOYgg7bR7fAlz7qo8-1" vertex="1">
          <mxGeometry x="110" y="510" width="20" height="20.5" as="geometry" />
        </mxCell>
        <mxCell id="DGYPOYgg7bR7fAlz7qo8-33" value="" style="strokeWidth=2;html=1;shape=mxgraph.flowchart.annotation_1;align=left;pointerEvents=1;" parent="DGYPOYgg7bR7fAlz7qo8-1" vertex="1">
          <mxGeometry x="80" y="250" width="20" height="290" as="geometry" />
        </mxCell>
        <mxCell id="DGYPOYgg7bR7fAlz7qo8-38" value="" style="strokeWidth=2;html=1;shape=mxgraph.flowchart.annotation_1;align=left;pointerEvents=1;" parent="DGYPOYgg7bR7fAlz7qo8-1" vertex="1">
          <mxGeometry x="480" y="250" width="15" height="60" as="geometry" />
        </mxCell>
        <mxCell id="DGYPOYgg7bR7fAlz7qo8-39" value="" style="strokeWidth=2;html=1;shape=mxgraph.flowchart.annotation_1;align=left;pointerEvents=1;" parent="DGYPOYgg7bR7fAlz7qo8-1" vertex="1">
          <mxGeometry x="480" y="320" width="15" height="20" as="geometry" />
        </mxCell>
        <mxCell id="DGYPOYgg7bR7fAlz7qo8-40" value="" style="strokeWidth=2;html=1;shape=mxgraph.flowchart.annotation_1;align=left;pointerEvents=1;" parent="DGYPOYgg7bR7fAlz7qo8-1" vertex="1">
          <mxGeometry x="480" y="350" width="15" height="20" as="geometry" />
        </mxCell>
        <mxCell id="DGYPOYgg7bR7fAlz7qo8-42" value="testing1" style="text;html=1;" parent="DGYPOYgg7bR7fAlz7qo8-1" vertex="1">
          <mxGeometry x="420" y="267.5" width="60" height="25" as="geometry" />
        </mxCell>
        <mxCell id="DGYPOYgg7bR7fAlz7qo8-43" value="t.logs[n+1]-t.logs[n]" style="text;html=1;strokeColor=none;fillColor=none;align=center;verticalAlign=middle;whiteSpace=wrap;rounded=0;" parent="DGYPOYgg7bR7fAlz7qo8-1" vertex="1">
          <mxGeometry x="480" y="270" width="125" height="20" as="geometry" />
        </mxCell>
      </root>
    </mxGraphModel>
  </diagram>
</mxfile>
